<svg xmlns="http://www.w3.org/2000/svg" version="1.1" xmlns:xlink="http://www.w3.org/1999/xlink" xmlns:svgjs="http://svgjs.dev/svgjs" viewBox="0 0 7.374783349814311 7.4589230797094865"><g transform="matrix(1,0,0,1,2.2821091607774053,2.358365040644445)"><rect width="7.374783349814311" height="7.4589230797094865" x="-2.2821091607774053" y="-2.358365040644445" fill="#b9625d"></rect><g><path d=" M -1.2838313598462106 -0.20343263942065737 L -0.6535242602218752 0.08218416709317167 L -0.6910836957605435 0.16507137239059155 L -1.1610814752492098 -0.04790300934515379 L -0.7860141372319028 0.3745665066587955 L -0.8124295644239332 0.43286080488994794 L -1.3786813748436961 0.4298796647823928 L -0.9077727469451681 0.6432667875680136 L -0.9453321824838363 0.7261539928654335 L -1.5756392821081717 0.44053718635160444 L -1.5351906592203752 0.35127404218515235 L -0.9085236600113288 0.35418472978931465 L -1.3238672416841317 -0.11508034366406694 L -1.2838313598462106 -0.20343263942065737 Z M -0.3648093717934802 -0.47377310522351074 L -0.5733020866192258 -0.25253389562315454 L -0.4989057528764184 -0.10547545307180417 L -0.5647455575582329 -0.035610439513796964 L -0.8962541368903345 -0.6942871901504136 L -0.8242418505196001 -0.770702048729484 L -0.1477601279067416 -0.4780888587145093 L -0.21359993258855597 -0.40822384515650206 L -0.3648093717934802 -0.47377310522351074 Z M -0.43649526684576884 -0.5056028468271156 L -0.77908172687001 -0.6553176336988841 L -0.6093247541355317 -0.3222071862373468 L -0.43649526684576884 -0.5056028468271156 Z M 0.4457507275934707 -0.8357401570725191 L 0.3666622855443668 -0.790728843669714 L -0.2259492389449614 -1.0920469165469218 L 0.04857030983038882 -0.6096943304232667 L -0.030518132218715008 -0.5646830170204615 L -0.37576974491275905 -1.1713174406498512 L -0.29668130286365524 -1.2163287540526564 L 0.2954355918080597 -0.9158797849342298 L 0.021410672850322776 -1.3973632672991037 L 0.10049911489942664 -1.4423745807019088 L 0.4457507275934707 -0.8357401570725191 Z M 1.0427576000405367 -1.4977081355617123 Q 1.0023096652415537 -1.5518003214160223 0.9417882851999386 -1.5738096957337624 Q 0.8812669051583236 -1.5958190700515025 0.8096972467675543 -1.5814390840352164 Q 0.738127588376785 -1.5670590980189303 0.6873728557149437 -1.5226918002375123 Q 0.6366181230531024 -1.4783245024560943 0.6160861445589533 -1.4104500753195373 Q 0.5955541660648042 -1.34257564818298 0.6117070270693996 -1.2621823332782802 Q 0.6278598880739951 -1.1817890183735806 0.6729166372397555 -1.1276028637340996 Q 0.717973386405516 -1.0734167090946185 0.7819261884247707 -1.052096786161221 Q 0.8458789904440254 -1.0307768632278234 0.9174486488347946 -1.0451568492441095 Q 1.0174500893260066 -1.0652494324449477 1.0701407510629561 -1.138055298731411 Q 1.1228314127999055 -1.210861165017874 1.1131293264520248 -1.3149902652756706 L 0.8405763807995061 -1.2602281267478959 L 0.8259994086734077 -1.332778191417991 L 1.1936517634205104 -1.4066479825975433 L 1.2074407911073601 -1.3380195430447508 Q 1.2165383463165993 -1.2521287141442514 1.1855241643191894 -1.1729683041211123 Q 1.1545099823217793 -1.0938078940979727 1.0891544349295628 -1.0383470752700497 Q 1.0237988875373458 -0.9828862564421266 0.93360150983939 -0.9647635343394098 Q 0.8385021007448062 -0.9456558816876321 0.7511067304023054 -0.9745054786119761 Q 0.6637113600598045 -1.00335507553632 0.6021665931763804 -1.0736081300554297 Q 0.5406218262929564 -1.1438611845745394 0.5205292430921181 -1.2438626250657512 Q 0.50043665989128 -1.3438640655569631 0.5299711839302312 -1.4329270314282647 Q 0.5595057079691826 -1.521989997299566 0.6289753423187788 -1.5823573717938524 Q 0.698444976668375 -1.6427247462881387 0.7935443857629588 -1.6618323989399162 Q 0.9023694827681012 -1.6836978571290637 0.9970284556901082 -1.646617824155093 Q 1.0916874286121154 -1.6095377911811228 1.1496218844870278 -1.5191796215312354 L 1.0427576000405367 -1.4977081355617123 Z M 1.8514646445684955 -1.1378891529466737 L 1.5494675545047534 -1.1727281769432212 L 1.4760731934421403 -1.025167112416664 L 1.380705691316748 -1.0361689094682052 L 1.7104646068617162 -1.6957233481755847 L 1.814772812311364 -1.6836901326504614 L 1.9846998714442323 -0.9664908614751104 L 1.88933236931884 -0.9774926585266518 L 1.8514646445684955 -1.1378891529466737 Z M 1.8341164979700983 -1.2143812558697893 L 1.749286573952839 -1.5785019556263755 L 1.5837768048909435 -1.2432609731300852 L 1.8341164979700983 -1.2143812558697893 Z M 3.113269131915225 -1.215381072525613 L 3.0776261922982 -1.1505306226007501 L 2.911118280328958 -1.2420462783741928 L 2.6110432616613015 -0.6960755986013633 L 2.5312947354023487 -0.7399067811033805 L 2.831369754070005 -1.28587746087621 L 2.6639854846693467 -1.3778747779958285 L 2.6996284242863715 -1.4427252279206912 L 3.113269131915225 -1.215381072525613 Z M 3.396534281003633 -0.99589781310335 L 2.959174733610565 -0.45319566062546374 L 2.888319789743295 -0.5102971223367538 L 3.3256793371363624 -1.05299927481464 L 3.396534281003633 -0.99589781310335 Z M 4.0960925616074295 -0.20059030051978555 L 3.545452021088676 0.21852662247094234 L 3.4903369343948087 0.14611579994607748 L 3.9009301698105263 -0.16640491141695085 L 3.3510350669267925 -0.03690056467720748 L 3.3122728081530832 -0.08782685744194763 L 3.583754239131894 -0.5847653170460492 L 3.1723652803917277 -0.2716389453896816 L 3.1172501936978603 -0.3440497679145465 L 3.667890734216613 -0.7631666909052743 L 3.727245442963855 -0.6851858051092661 L 3.4271407364738256 -0.1350429462602818 L 4.037343513153527 -0.2777754629913448 L 4.0960925616074295 -0.20059030051978555 Z M 4.229896004814297 0.2664172674345128 L 4.011308868841633 0.34709355879243387 L 4.099256413927092 0.5853816812690718 L 4.028895747841471 0.6113504445817073 L 3.9409482027560117 0.3730623221050694 L 3.715794071282023 0.4561623647055031 L 3.8141291216925364 0.7225947536163895 L 3.743768455606915 0.748563516929025 L 3.6139246390437374 0.396760186500918 L 4.268747904747254 0.15507756260465655 L 4.3985917213104315 0.5068808930327636 L 4.32823105522481 0.5328496563453992 L 4.229896004814297 0.2664172674345128 Z" fill="#ffffff" fill-rule="nonzero"></path></g><g><path d=" M -1.2628173271916538 2.932026171854088 Q -1.3016755902484005 2.8641849448130947 -1.3059667280245892 2.802735716793623 Q -1.3102578658007782 2.7412864887741506 -1.2766542287990523 2.6874662135376077 Q -1.2430505917973262 2.633645938301065 -1.1714947654881942 2.5884693874587232 Q -1.1372371407585784 2.567799564185027 -1.1052886559311341 2.5495000333269084 Q -1.0733401711036896 2.5312005024687894 -1.0381788658378706 2.512108382149535 Q -0.9637971688611456 2.4736944833930616 -0.8996943137625547 2.473121682868926 Q -0.8355914586639637 2.4725488823447908 -0.783743312120473 2.507282120016771 Q -0.7318951655769822 2.542015357688751 -0.6948442635926425 2.606701178820861 Q -0.6582452018764045 2.67059814847575 -0.6545169954433857 2.732893642501934 Q -0.6507887890103667 2.7951891365281183 -0.6834887454758893 2.8505871147191026 Q -0.7161887019414119 2.905985092910087 -0.787407517041425 2.9499209520071066 Q -0.8212133015029388 2.971379626758023 -0.8531617863303833 2.989679157616142 Q -0.8851102711578276 3.007978688474261 -0.9207234166917484 3.0262819573162942 Q -0.9954421248775925 3.06593654781809 -1.0590931397080818 3.0672981998194464 Q -1.1227441545385712 3.068659851820803 -1.1735775294707902 3.0338691996193314 Q -1.2244109044030091 2.99907854741786 -1.2628173271916538 2.932026171854088 Z M -1.1957649516278817 2.8936197490654427 Q -1.1614250912521522 2.9535724613342276 -1.1032236702970606 2.9710471056467602 Q -1.0450222493419687 2.988521749959293 -0.9619631861158146 2.945137608253701 Q -0.925561189104673 2.926382499143566 -0.8975569616633328 2.9103421696259555 Q -0.8695527342219926 2.894301840108345 -0.8357469497604787 2.8728431653574282 Q -0.7822198783684435 2.840088483903969 -0.758917511148337 2.802121342660906 Q -0.7356151439282306 2.7641542014178424 -0.7374598848397801 2.7243521884441955 Q -0.7393046257513295 2.684550175470548 -0.7618966391564147 2.6451076016095056 Q -0.7844886525614999 2.605665027748463 -0.8178874525618833 2.5839366254988843 Q -0.8512862525622668 2.5622082232493053 -0.8958251123831533 2.5630993450629886 Q -0.9403639722040399 2.563990466876672 -0.9961502449365836 2.592800890944027 Q -1.0313115502024026 2.611893011263281 -1.0593157776437427 2.6279333407808916 Q -1.087320005085083 2.643973670298502 -1.1223664812919194 2.6650953338402994 Q -1.2018108223732602 2.7147902873636585 -1.2159578171884355 2.774228662080158 Q -1.2301048120036113 2.8336670367966583 -1.1957649516278817 2.8936197490654427 Z M -0.9200832745094799 3.407683320757139 Q -0.9269938670561285 3.4004553396659767 -0.9264922014367953 3.392429272565959 Q -0.9259905358174622 3.384403205465942 -0.9194196439164052 3.3781208486053522 L -0.490340402777387 2.9678829456088476 Q -0.48311242168622437 2.960972353062199 -0.4750719278341835 2.96083135624345 Q -0.46703143398214275 2.9606903594247007 -0.46012084143549414 2.9679183405158636 L -0.20380068152343633 3.236010730078987 Q -0.19689008897678772 3.2432387111701493 -0.19707763675309153 3.2515933228652196 Q -0.19726518452939523 3.25994793456029 -0.20449316562055786 3.2668585271069386 L -0.23077673322478565 3.291987954549297 Q -0.23800471431594827 3.2988985470959458 -0.24603078141596568 3.2983968814766125 Q -0.2540568485159831 3.297895215857279 -0.2609674410626317 3.2906672347661168 L -0.47079816020632603 3.071199445270815 L -0.6238999415009527 3.2175783601225536 L -0.4266339360784377 3.4239043658157415 Q -0.4197233435317891 3.4311323469069044 -0.4199108913080929 3.4394869586019747 Q -0.4200984390843966 3.4478415702970446 -0.4273264201755592 3.4547521628436932 L -0.453609987779787 3.4798815902860523 Q -0.460180879680844 3.486163947146642 -0.4685354913759142 3.485976399370338 Q -0.47689010307098445 3.4857888515940343 -0.48380069561763306 3.4785608705028714 L -0.6810667010401481 3.2722348648096835 L -0.8584807823686855 3.4418585000456043 Q -0.8650516742697425 3.448140856906194 -0.8734062859648127 3.44795330912989 Q -0.8817608976598831 3.4477657613535864 -0.8886714902065317 3.440537780262424 L -0.9200832745094799 3.407683320757139 Z M -0.0637925092156274 4.094428035332057 Q -0.07180591083811255 4.090135015120606 -0.07422415875528485 4.082135840928547 Q -0.07664240667245714 4.074136666736489 -0.07234938646100628 4.066123265114004 L 0.1800802019723049 3.5949352497118765 L 0.02622289082058976 3.5125092616520197 Q 0.01820948919810461 3.508216241440569 0.01579124128093229 3.50021706724851 Q 0.013372993363760022 3.492217893056452 0.017666013575210915 3.4842044914339665 L 0.03569669846330453 3.450548204619529 Q 0.04041902069590053 3.4417334628347955 0.0484181948879589 3.439315214917623 Q 0.05641736908001738 3.4368969670004508 0.06443077070250253 3.4411899872119016 L 0.4506767289062874 3.6481135614038336 Q 0.45949147069102114 3.6528358836364294 0.4619097186081934 3.660835057828488 Q 0.4643279665253658 3.6688342320205463 0.45960564429276984 3.67764897380528 L 0.44157495940467617 3.7113052606197177 Q 0.4372819391932252 3.7193186622422028 0.4292827650011668 3.7217369101593754 Q 0.4212835908091084 3.7241551580765475 0.41246884902437464 3.7194328358439517 L 0.2594128780349081 3.63743614980524 L 0.0069832896015968315 4.108624165207368 Q 0.002690269390145994 4.116637566829853 -0.0053089048019124285 4.119055814747025 Q -0.013308078993970851 4.1214740626641975 -0.022122820778704533 4.116751740431601 L -0.0637925092156274 4.094428035332057 Z M 0.458383243481317 4.327943476961257 Q 0.4486698689536601 4.325566429362771 0.44477628370131617 4.318530136633618 Q 0.4408826984489722 4.311493843904465 0.44304365081123204 4.302663503424777 L 0.5841538400667982 3.7260422701011477 Q 0.5865308876652839 3.7163288955734908 0.5932337109885657 3.7118857456790497 Q 0.5999365343118473 3.707442595784608 0.6096499088395042 3.709819643383094 L 0.6546846452859132 3.720840500430619 Q 0.66439801981357 3.7232175480291048 0.6687331220898984 3.730361888376371 Q 0.6730682243662268 3.737506228723637 0.670691176767741 3.7472196032512937 L 0.61104889156937 3.9909370004906837 L 0.9148126040706387 4.0652737617524215 L 0.9744548892690097 3.8215563645130315 Q 0.9768319368674955 3.811842989985375 0.9839762772147616 3.8075078877090465 Q 0.9911206175620276 3.803172785432718 0.9999509580417157 3.805333737794978 L 1.0449856944881248 3.816354594842503 Q 1.0546990690157816 3.818731642440989 1.0590341712921099 3.825875982788255 Q 1.0633692735684384 3.833020323135521 1.0609922259699525 3.842733697663178 L 0.9198820367143864 4.419354930986807 Q 0.9177210843521266 4.4281852714664955 0.9105767440048604 4.432520373742824 Q 0.9034324036575944 4.436855476019152 0.8937190291299375 4.434478428420666 L 0.8486842926835285 4.423457571373141 Q 0.8398539522038404 4.421296619010882 0.8355188499275121 4.414152278663615 Q 0.8311837476511836 4.407007938316349 0.8333447000134435 4.398177597836661 L 0.8953640328103003 4.144746826069614 L 0.5916003203090316 4.070410064807876 L 0.5295809875121749 4.323840836574923 Q 0.5274200351499151 4.332671177054611 0.5202756948026489 4.337006279330939 Q 0.5131313544553828 4.3413413816072675 0.503417979927726 4.338964334008782 L 0.458383243481317 4.327943476961257 Z M 1.281633150271849 4.471721022684477 Q 1.2716345754390557 4.471889846003456 1.2660810481144993 4.466073682685339 Q 1.260527520789943 4.460257519367222 1.2603740450454173 4.451167905882864 L 1.2503520789278857 3.857616145354312 Q 1.2501832556089072 3.8476175705215185 1.25553726446558 3.84161723630997 Q 1.2608912733222528 3.8356169020984225 1.2708898481550464 3.8354480787794443 L 1.6462908850590159 3.8291095305305305 Q 1.6562894598918092 3.828940707211552 1.6618429872163656 3.8347568705296693 Q 1.667396514540922 3.8405730338477864 1.6675653378599002 3.8505716086805797 L 1.668148545689098 3.8851121399211386 Q 1.6683173690080764 3.895110714753932 1.6629556863641772 3.900656568291262 Q 1.657594003720278 3.906202421828592 1.6475954288874848 3.9063712451475703 L 1.3385485704193258 3.911589420461446 L 1.3419096892244398 4.110651955768878 L 1.630959398027012 4.105771427092959 Q 1.6409579728598054 4.10560260377398 1.6465115001843618 4.111418767092098 Q 1.652065027508918 4.1172349304102145 1.6522338508278964 4.127233505243008 L 1.6528017110826416 4.160865075135131 Q 1.6529551868271675 4.169954688619489 1.6476011779704947 4.175955022831037 Q 1.6422471691138216 4.181955357042584 1.6322485942810283 4.182124180361563 L 1.343198885478456 4.187004709037482 L 1.3466827848791907 4.3933389351324 L 1.6630013341348358 4.387997979222903 Q 1.672999908967629 4.387829155903925 1.6785457625049591 4.393190838547825 Q 1.6840916160422892 4.398552521191723 1.6842604393612675 4.4085510960245164 L 1.684858994764918 4.444000588613512 Q 1.6850124705094438 4.453090202097869 1.6796584616527708 4.459090536309417 Q 1.674304452796098 4.465090870520965 1.6643058779633046 4.465259693839943 L 1.281633150271849 4.471721022684477 Z M 2.299696882721401 4.3399760938853404 Q 2.2902910107274543 4.343371616235951 2.283154090069032 4.339665704067134 Q 2.2760171694106095 4.335959791898317 2.272930330910055 4.327408999176547 L 2.071051092973776 3.76818715517282 Q 2.0679642544732215 3.7596363624510505 2.0710882850809225 3.7522262440815677 Q 2.074212315688624 3.7448161257120844 2.0836181876825703 3.7414206033614743 L 2.1289373891079486 3.725060359308534 Q 2.1374881818297182 3.721973520807979 2.145052642124229 3.725525091051769 Q 2.1526171024187395 3.729076661295559 2.1557039409192944 3.7376274540173284 L 2.337827412452023 4.24212422460173 L 2.621713730814771 4.139641186383313 Q 2.6311196028087176 4.136245664032703 2.6386840631032284 4.139797234276493 Q 2.6462485233977393 4.143348804520282 2.6496440457483494 4.1527546765142285 L 2.661991399750568 4.186957847401307 Q 2.665078238251123 4.195508640123077 2.6615266680073333 4.203073100417587 Q 2.6579750977635435 4.210637560712098 2.648569225769597 4.214033083062708 L 2.299696882721401 4.3399760938853404 Z M 2.9253569708618925 4.071618919568963 Q 2.9169648836528617 4.0770570141135645 2.909173962035217 4.0750642868780105 Q 2.901383040417572 4.073071559642457 2.896439318104298 4.065442389452429 L 2.5736142510474984 3.567257576043612 Q 2.568176156502897 3.5588654888345816 2.5695402391132856 3.550940294823099 Q 2.570904321723674 3.5430151008116164 2.579296408932705 3.537577006267015 L 2.894381137780854 3.333401274728794 Q 2.9027732249898843 3.3279631801841925 2.9105641466075296 3.3299559074197465 Q 2.9183550682251744 3.3319486346552996 2.9237931627697757 3.3403407218643304 L 2.9425793075602176 3.3693315685864365 Q 2.948017402104819 3.377723655795467 2.946406133378767 3.385267391297448 Q 2.9447948646527147 3.392811126799429 2.936402777443684 3.398249221344031 L 2.6770109909827378 3.5663357799953506 L 2.7852785096434407 3.73341460715696 L 3.0278861216863255 3.576204237594843 Q 3.0362782088953564 3.5707661430502418 3.044069130513001 3.5727588702857953 Q 3.051860052130646 3.574751597521349 3.0572981466752474 3.5831436847303797 L 3.075589919234362 3.6113716144334824 Q 3.080533641547636 3.6190007846235104 3.0791695589372474 3.6269259786349926 Q 3.077805476326859 3.634851172646475 3.069413389117828 3.640289267191077 L 2.8268057770749433 3.7974996367531935 L 2.9390282735862656 3.970681800066825 L 3.204523396199234 3.798640263564886 Q 3.2129154834082647 3.793202169020285 3.220459218910246 3.794813437746337 Q 3.228002954412227 3.796424706472389 3.2334410489568284 3.80481679368142 L 3.2527215659785975 3.8345705574225284 Q 3.2576652882918715 3.8421997276125563 3.256301205681483 3.8501249216240385 Q 3.2549371230710946 3.858050115635521 3.2465450358620638 3.863488210180123 L 2.9253569708618925 4.071618919568963 Z M 3.4721989220449685 3.6835636805416314 Q 3.4672564413081086 3.6888988887052596 3.4595481746327432 3.6891934342753356 Q 3.4518399079573774 3.689487979845412 3.446504699793749 3.6845454991085527 Q 3.443170194691482 3.6814564486480155 3.4397865986608682 3.677082687074917 L 3.161518541270099 3.11196810440893 Q 3.1573207714339935 3.1031223994060415 3.1576440359560247 3.0947472317102225 Q 3.157967300478056 3.0863720640144034 3.1666166417675603 3.0770354497280543 L 3.2086277280308666 3.031686180337216 Q 3.217277069320371 3.022349566050867 3.225603146087844 3.021388119460337 Q 3.233929222855317 3.0204266728698075 3.243069473428282 3.023937169709068 L 3.827153526412238 3.258935747250571 Q 3.8323905527191737 3.2613088057623085 3.835725057821441 3.2643978562228457 Q 3.841060265985069 3.2693403369597056 3.8413548115551452 3.277048603635071 Q 3.8416493571252217 3.284756870310437 3.8367068763883623 3.290092078474065 L 3.8051985616908826 3.3241040305171934 Q 3.797784840585593 3.3321068427626357 3.790385478956281 3.332067937822485 Q 3.782986117326969 3.3320290328823345 3.7784159920404865 3.3302737844627046 L 3.6497364920701796 3.2792243075083896 L 3.447094781858937 3.4979678422171383 L 3.5078151716974246 3.6223764314213387 Q 3.5105318667075847 3.6261323829023295 3.510826412277661 3.633840649577695 Q 3.5111209578477376 3.6415489162530608 3.503707236742448 3.6495517284985026 L 3.4721989220449685 3.6835636805416314 Z M 3.407657786771052 3.4254960447027463 L 3.5744665116400625 3.245432769180301 L 3.2543122869445638 3.11614182424338 L 3.407657786771052 3.4254960447027463 Z M 4.012214348786506 3.0253971264436688 Q 4.00739632941057 3.0341599278960074 3.9995902998018598 3.0360926263296855 Q 3.9917842701931496 3.038025324763363 3.98381808705466 3.0336453071488765 L 3.463626328111267 2.7476301569229062 Q 3.454863526658928 2.742812137546971 3.4523135181876015 2.7351854162144607 Q 3.449763509716275 2.727558694881951 3.45458152909221 2.7187958934296117 L 3.6332862477632606 2.3937756213792225 Q 3.638104267139196 2.3850128199268834 3.6461292976286304 2.3826818123362816 Q 3.6541543281180653 2.380350804745679 3.662917129570404 2.3851688241216142 L 3.6947818621243638 2.40268889457956 Q 3.703544663576703 2.407506913955496 3.7054773620103805 2.415312943564206 Q 3.707410060444058 2.423118973172916 3.702592041068123 2.4318817746252552 L 3.556299452744273 2.697952291450819 L 3.7419115198710884 2.800006701868355 L 3.879444072965965 2.549868551319771 Q 3.8842620923419005 2.541105749867432 3.8922871228313354 2.5387747422768303 Q 3.90031215332077 2.5364437346862276 3.909074954773109 2.541261754062163 L 3.9409396873270683 2.5587818245201093 Q 3.9489058704655586 2.563161842134596 3.951236878056161 2.5711868726240303 Q 3.9535678856467626 2.579211903113465 3.948749866270828 2.587974704565804 L 3.8112173131759506 2.838112855114388 L 4.026304257915179 2.956373330705524 Q 4.0342704410536685 2.9607533483200106 4.036601448644271 2.9687783788094455 Q 4.038932456234873 2.97680340929888 4.034114436858938 2.985566210751219 L 4.012214348786506 3.0253971264436688 Z" fill="#ffffff" fill-rule="nonzero"></path></g><g clip-path="url(&quot;#SvgjsClipPath1021&quot;)"><g clip-path="url(&quot;#SvgjsClipPath1008&quot;)"><path d=" M 2.283262617679828 1.1666899208070385 C 2.3187983175873526 1.1779342688262406 2.353461621870465 1.1917693470319988 2.3869736800689507 1.2080838585354385 C 2.460031589482834 1.248195488408527 2.5237190143491204 1.3033923389171613 2.5738059919099925 1.370008370454773 L 2.598753479212075 1.4033457699675775 L 2.573805991909993 1.4365402949110413 C 2.5239983295426485 1.5029134698458197 2.461728829738374 1.5610872319956637 2.3869736800689476 1.598385432069632 C 2.353787092601558 1.614998569493513 2.320592567658094 1.631572019537022 2.283262617679828 1.6399460567955948 C 2.311195208893455 1.665095388324311 2.334994668874894 1.6944851097555265 2.353787092601558 1.7270360442847594 C 2.398363182725892 1.7971060294975758 2.425421849609689 1.8768745112055183 2.4326776673057884 1.959604093266943 L 2.4410437670882863 2.0011647179929057 L 2.3994513924580256 2.017777855416787 C 2.323861732733908 2.051562214285771 2.2414184292386277 2.0672000753147306 2.1587077431191304 2.063442155273254 C 2.1221910065752168 2.0622567694964107 2.0859485571103824 2.056692487549163 2.05075806850624 2.0468687052297456 C 2.0589867461708122 2.083651079928433 2.063170823791163 2.12122260644807 2.063235780895318 2.1589141174970665 C 2.0669845209785915 2.2416053864935512 2.051349701808075 2.324027956331449 2.017579418514926 2.3996022045034398 L 2.00095834361497 2.436908342053483 L 1.9636522060649269 2.4327649795426067 C 1.8800436166075312 2.423689431233227 1.7993513394689586 2.396799223157162 1.7270122318565382 2.353906154742675 C 1.6978102573785354 2.333189342188289 1.6688384697066938 2.3082101049819097 1.6397952447501805 2.2833816798209448 C 1.6320518851845165 2.3201066498716054 1.617975013714072 2.3552034786264806 1.5981949326438456 2.387100679686139 C 1.560888795093802 2.461847891879491 1.502730907896107 2.5241253291598396 1.4362704207245096 2.573932991527184 L 1.4072192582919227 2.5989122287335644 L 1.3739929834441607 2.573932991527184 C 1.307611871033308 2.52412532915984 1.2494381088834636 2.4618478918794913 1.2121795961898685 2.387100679686139 C 1.1955108964334658 2.353906154742675 1.1787866343445423 2.3207195672752854 1.170579284083533 2.2833816798209448 C 1.141615433887766 2.3082101049819097 1.1124055219336897 2.333189342188289 1.0834813591182941 2.353906154742675 C 1.0123307525370668 2.396114061830151 0.9331393759646649 2.4229753225418897 0.8509926848968563 2.4327649795426067 L 0.8093923727905209 2.436908342053483 L 0.7928109852709372 2.39960220450344 C 0.7589912689837579 2.324029605786705 0.7433933745448221 2.2415703866062104 0.7472736850316622 2.1588664926406196 C 0.7465865850159809 2.120869014798696 0.7521453755153261 2.0830166816155096 0.7637280729340534 2.0468210803732987 C 0.7264219353840098 2.0550284306343087 0.6891157978339673 2.0633945304168075 0.6516509107624343 2.0633945304168075 C 0.568938975223356 2.0671339642441278 0.4864973233637173 2.051496932060932 0.4108993239474652 2.01773023056034 L 0.36934663669757606 2.001117093136459 L 0.37771273648007475 1.959556468410496 C 0.386947685123574 1.877261368265033 0.4138442615495811 1.79793081770312 0.4565636238039317 1.726988419428312 C 0.47667406168921794 1.6953642343700897 0.5003360298497099 1.6661443002500096 0.5270880987256615 1.6398984319391485 C 0.48978196117561806 1.6315243946805746 0.4565636238039317 1.6149509446370662 0.42325797419542444 1.5983378072131857 C 0.3486456990953383 1.5610316696631426 0.28635238686284087 1.5028658449893735 0.23658441187586876 1.4364926700545946 L 0.21160517466948855 1.4032981451111308 L 0.23658441187586876 1.3699607455983265 C 0.28663347925660604 1.303369405163722 0.3502636429292806 1.2481752841108018 0.42325797419542444 1.2080362336789907 C 0.45682285323188665 1.191748677895847 0.4915237424716762 1.1779144804044088 0.5270880987256615 1.1666422959505915 C 0.5003699304964916 1.140301637287181 0.47671186737382665 1.1110279461256085 0.4565636238039317 1.0793776839877889 C 0.4138468267063394 1.0084628970340572 0.3869500108404698 0.9291587157665595 0.37771273648007475 0.8468890097663507 L 0.36934663669757606 0.8054474471815044 L 0.4108993239474642 0.7929776722685008 C 0.48681777128210757 0.7598287256073947 0.5688114841275206 0.742865534545281 0.6516509107624353 0.7431700099011559 C 0.6892909732422032 0.7466136015402904 0.7267086239199085 0.7521626497356951 0.7637280729340514 0.7597910848011111 C 0.7518797979729918 0.7250696442384347 0.7463080593241523 0.6885160284042763 0.7472736850316622 0.651841410188221 C 0.7437590722402663 0.5677820232357632 0.7593275775869487 0.48401819988975864 0.7928109852709372 0.40683533619733053 L 0.8093923727905209 0.36952919864728856 L 0.8509926848968563 0.3736408112538677 C 0.9298435722207132 0.3861502735472439 1.0128378220554475 0.4109469488039108 1.0834813591182941 0.4566350610886018 C 1.1144729714578523 0.47765934636693114 1.143611585194839 0.5012931440757789 1.170579284083533 0.5272785981514496 L 1.170579284083533 0.5148326356666688 L 1.183056996472611 0.48574178585370975 L 1.1955267713856153 0.4484356483036667 L 1.2121954711420178 0.4234484736212123 L 1.2121954711420178 0.4234484736212123 C 1.2494539838356131 0.34870126142786007 1.3076277459854575 0.28642382414751155 1.3740088583963102 0.2366240992562413 L 1.4072351332440722 0.21179567409527647 L 1.436286295676659 0.2366240992562413 C 1.502707095467885 0.28642382414751155 1.5608411702373561 0.34870126142786007 1.598210807595995 0.4234484736212123 L 1.6149509446370676 0.4525393234341714 L 1.6313973950633844 0.48984546098421444 L 1.6356677571914533 0.5107210230600896 L 1.6398111197023308 0.5272944731035982 C 1.666777736854842 0.5012595904559753 1.6959602978764048 0.4776224596685796 1.727028106808689 0.4566509360407494 C 1.7975128943500454 0.41098663618428305 1.8805468315651521 0.3861661484993927 1.9636680810170772 0.3736566862060165 L 2.00097421856712 0.3695450735994373 L 2.0175952934670756 0.4068512111494803 C 2.0510392201572443 0.48404934047817005 2.0666476477051083 0.5677944009891939 2.063259593323543 0.6518572851403697 C 2.0634108913255633 0.6882088374614617 2.0592220154641505 0.7244484759571472 2.0507818809344665 0.7598069597532557 C 2.0863577554079105 0.7518844402975398 2.122420236639132 0.7463318788491445 2.158731555547355 0.7431858848533048 C 2.241570437358106 0.7428613301944752 2.323565658731539 0.759825392644798 2.3994752048862513 0.7929935472206497 L 2.4410675795165115 0.8054633221336532 L 2.4327094172100856 0.8469128221945736 C 2.4254509247015483 0.9296171063322498 2.3983919679213925 1.009359217620182 2.353818842505856 1.0794014964160124 C 2.334989498124431 1.1119786476089644 2.311195526084802 1.1414205078907513 2.283294367584126 1.1666661083788148 Z M 0 1.4033298950154287 L 0.020685062650088296 1.3783427203329743 L 0.07885882479993168 1.2994521456287451 C 0.11208509964769374 1.257891520902782 0.14523199973470963 1.2164975831743832 0.18667356231955567 1.179040633578925 C 0.21272794078415386 1.1508263071185967 0.24201837549852867 1.1257826390892058 0.2739381742823586 1.104428358478839 C 0.2573170993824034 1.0669793463594552 0.24484732446940008 1.0337848214159915 0.23237754955639578 0.9964786838659484 C 0.22002683678450927 0.9424482842269817 0.20751737449113336 0.8885290092530579 0.20341369936062872 0.8344747971858677 L 0.1909359869715497 0.7389631475816829 L 0.18667356231955567 0.7057765601142935 L 0.21588347427363103 0.6932988477252153 L 0.3072835112712365 0.6559927101751721 C 0.3569324241170918 0.6353155850011591 0.40685914862555334 0.6144320854492094 0.46076254864732896 0.6020813726773229 C 0.49878253842233433 0.5921873101460144 0.5378000564842247 0.5866274536174383 0.5770703855666461 0.5855079226338141 C 0.5782222480457544 0.5462199793332295 0.5837653219857042 0.5071841723651523 0.5935962107537067 0.4691286484298294 C 0.6060739231427847 0.41521731093197944 0.6267510483167984 0.36529058642351747 0.6476266103926739 0.3154829240561728 L 0.6849327479427174 0.2283929365670084 L 0.6974025228557208 0.19519841162354457 L 0.7306367351795575 0.19934177413442167 L 0.8262198220684128 0.21181154904742544 C 0.8801311595662622 0.21591522417793016 0.9340424970641116 0.2283929365670084 0.9879538345619608 0.24089446138431006 C 1.0249161772151643 0.2521205698054761 1.0610351287089956 0.26595595579297887 1.0960384462681163 0.28229633658878356 C 1.118472961071278 0.25126225729244184 1.143428271167868 0.2221309149850073 1.1706507213682025 0.19519841162354398 C 1.2067680596201416 0.15495404386133324 1.2471560145411644 0.1187579195169577 1.2911019207983958 0.08724873701065294 L 1.382311458370212 0.016605199947806435 L 1.4072906955765923 -0.00000793747607446885 L 1.427967820750606 0.016605199947806435 L 1.519375795224286 0.08724873701065392 C 1.5650400950807535 0.12044326195411778 1.606592782330642 0.15362984942150715 1.639826994654478 0.19519841162354448 C 1.6671006223301938 0.22212135462939336 1.6921015253504634 0.25125323408584677 1.7145742068478291 0.28229633658878267 C 1.750941733926075 0.2659403902531046 1.7883919398623753 0.2521070729127078 1.8266593064955223 0.24089446138431006 C 1.8783162108201836 0.22678713475292464 1.9310701536338921 0.21705840279855426 1.9843610811432348 0.21181154904742563 L 2.079872730747422 0.1993417741344216 L 2.113059318214811 0.19519841162354448 L 2.1255290931278155 0.22839293656700838 L 2.1628352306778584 0.31548292405617273 C 2.1835917306126165 0.36529058642351747 2.2044355427841933 0.41521731093197933 2.2167465681757075 0.46912864842982877 C 2.22670286532631 0.507154221954513 2.232316108413014 0.5461859663401376 2.2334787677407073 0.5854761727295164 C 2.2727102276289743 0.5865920944213768 2.311688714355831 0.5921520807778241 2.349667542518905 0.602049622773025 C 2.4037376295382433 0.6144003355449115 2.453378604908024 0.6352838350968611 2.507448691927363 0.6559609602708742 L 2.5946736165097937 0.6932670978209174 L 2.623637466705561 0.7057448102099957 L 2.6195337915750563 0.738931397677385 L 2.6071433914227975 0.8344033599011975 C 2.6029206541511756 0.8884734469205365 2.5904111918577994 0.9423530345140879 2.577933479468721 0.9964072465812781 C 2.565463704555717 1.033713384131321 2.5531129917838307 1.066939658979083 2.5364998543599495 1.1043569211941686 C 2.5689356390045472 1.1267130288317693 2.5995027392856436 1.151665763755113 2.627899891357555 1.1789691962942546 C 2.665206028907598 1.2164261458897128 2.698384678898913 1.2578200836181117 2.7357225663532536 1.299380708344075 L 2.789752965992221 1.3782712830483042 L 2.8105888406877235 1.4032584577307585 L 2.789752965992221 1.4321826205461536 L 2.7357225663532536 1.506929832739506 C 2.6984164288032106 1.552633819976346 2.665198091431524 1.5941944447023089 2.627899891357555 1.631484707300203 C 2.5987772916402982 1.6564718819826574 2.565463704555717 1.6812923696675477 2.5364998543599495 1.7021282443630508 C 2.5531129917838307 1.7394343819130933 2.565463704555717 1.7767405194631367 2.577933479468721 1.814205406534669 C 2.5920226255530405 1.8658887232257015 2.601792876305232 1.918653387206423 2.6071433914227975 1.9719548060388294 L 2.6195337915750563 2.067418830786568 L 2.623637466705561 2.1006054182539575 L 2.5946736165097937 2.113122818023408 L 2.507448691927363 2.150428955573451 C 2.456917178158984 2.173986524713692 2.404026920341636 2.19211150893 2.349667542518905 2.20449904259279 C 2.3113897223892406 2.2137345150986247 2.272589673100651 2.2206526821052663 2.2334787677407073 2.2252158551471757 C 2.233478767740707 2.262521992697219 2.225112667958208 2.2999710048166024 2.2167465681757084 2.3372612674144966 C 2.2044355427841946 2.3913313544338357 2.183591730612617 2.441099329420808 2.162835230677859 2.495010666918658 L 2.1255290931278163 2.582267341405386 L 2.113059318214812 2.6113581912183457 L 2.079872730747423 2.607095766566351 L 1.9843610811432384 2.5988804788292668 C 1.930457681121463 2.5905143790467684 1.8764114065303477 2.582267341405386 1.8266593064955239 2.5656542039815053 C 1.7884034584969253 2.5543431383231896 1.7509563249599422 2.540457918352958 1.7145742068478327 2.5240935792555432 C 1.6932410022543765 2.5573126214760245 1.6681607157717873 2.587969856020049 1.6398269946544795 2.6154618663488507 C 1.6035791001001938 2.6555753648718095 1.5632058633600108 2.691758298622484 1.5193757952242866 2.723411540961741 L 1.4279678207506068 2.7897926533725945 L 1.4072906955765931 2.8063740408921776 L 1.382311458370213 2.7897926533725945 L 1.291101920798395 2.723411540961741 C 1.2454058710376306 2.69018526611398 1.2081076709636607 2.6527680038988937 1.1706507213682034 2.6154618663488507 C 1.1423685967675499 2.587958482215046 1.1173342519231677 2.5573020626933776 1.0960384462681183 2.5240935792555437 C 1.061002096735512 2.5404451145035516 1.024867645964358 2.554332371126993 0.9878982722294368 2.5656542039815062 C 0.934872420614478 2.5806715457078138 0.8808158769155316 2.5917768014952003 0.8261642597358898 2.5988804788292668 L 0.7305811728470355 2.607095766566351 L 0.6973469605231997 2.6113581912183457 L 0.6848771856101954 2.582267341405386 L 0.6475710480601519 2.495010666918658 C 0.6266954859842763 2.4410993294208083 0.6060183608102637 2.3913313544338357 0.5935406484211847 2.3372612674144966 C 0.5852936107798028 2.299955129864454 0.577046573138422 2.262514055221144 0.577046573138422 2.2252158551471757 C 0.5378970173879244 2.220648277183267 0.49905761584381625 2.2137301827295626 0.4607387362191058 2.2044990425927904 C 0.4075777908179976 2.1927589235315317 0.35604039745323135 2.1746024938873045 0.3072596988430143 2.150428955573451 L 0.21585966184540886 2.113122818023408 L 0.18664974989133254 2.1006054182539575 L 0.19091217454332754 2.067418830786568 L 0.20338988693240556 1.9719548060388303 C 0.20866312056146144 1.9186608508628629 0.21835099799583568 1.8658965658174376 0.23235373712817162 1.8142054065346707 C 0.24482351204117692 1.7767563944152858 0.2572932869541812 1.7394581943413174 0.2739143618541355 1.7021282443630508 C 0.24304452641758456 1.6808705629368377 0.2138689316050407 1.6572519715386536 0.18664974989133054 1.6314847073002021 C 0.14638375912469156 1.593919227221742 0.11024093375012452 1.5521645915906077 0.07883501237170952 1.5069298327395064 L 0.02066125022186514 1.4321826205461536 Z M 2.698360866470691 1.4033298950154287 L 2.6610547289206474 1.3533634831265946 C 2.6325124483375077 1.3133043479109527 2.600527340753958 1.2758135417455956 2.565463704555717 1.241318070859273 C 2.528292504098941 1.212235158522389 2.4949789170143597 1.183263370850547 2.453378604908025 1.1583238210245395 L 2.416072467357982 1.137607008470154 L 2.436916279529559 1.096046383744191 C 2.4617367672144495 1.058740246194148 2.47834990463833 1.0130521339094567 2.4908196795513335 0.9673481466726168 C 2.5036939910917524 0.9196204598692057 2.513411958572024 0.8710969114683951 2.5199105293642923 0.8220923345096859 L 2.528276629146792 0.7639185723598395 L 2.470094929520873 0.7389631475816829 C 2.424364897213008 0.7187275633410692 2.3771258877928028 0.7020904088435822 2.3288078553951768 0.6892031100707843 C 2.283262617679828 0.6809560724294031 2.2375983178233603 0.6725899726469042 2.1919340179668927 0.6725899726469042 L 2.1462379682061274 0.6725899726469042 L 2.1462379682061274 0.6269177353143621 C 2.1462379682061274 0.581213748077522 2.1378639309475536 0.5355494482210545 2.1296565806865444 0.4898533984602889 C 2.116694886161884 0.4416022750991674 2.1000460054190793 0.3944180627166666 2.0798568557952746 0.3487171363800108 L 2.0549966807300115 0.2948057988821595 L 1.9968626059605394 0.29890947401266427 C 1.9479243533965012 0.30580205063245836 1.899425003263927 0.3155151718475339 1.8516067937976017 0.3280003238256241 C 1.8067049695964092 0.3409178861686249 1.7634711662966926 0.3590516281774467 1.7227894945849136 0.3820307234645902 L 1.6813558694761432 0.4027475360189756 L 1.6606708068260556 0.36529058642351747 C 1.6352529881256255 0.32763999138895633 1.6074854781641583 0.2916302446058155 1.5775336824219823 0.2574758489038941 C 1.5443074075742194 0.2200188993084349 1.5068425205026874 0.19093598697155026 1.4654485827742882 0.1577414620280864 L 1.4072748206244448 0.11207716217161878 L 1.3449973833440967 0.1577414620280864 C 1.3033970712377614 0.19093598697155026 1.2661068086398672 0.2200188993084349 1.232912283696403 0.257475848903893 C 1.2029976062126788 0.2916246576851844 1.1752772940798921 0.3276350822930323 1.1499180338616688 0.36529058642351625 L 1.1292012213072826 0.4027475360189756 L 1.0876405965813198 0.38203072346459 C 1.0480988894112817 0.35976896752413096 1.0063579335185753 0.3416622451967254 0.9630857220206248 0.3280003238256239 C 0.913872814522711 0.3155368662086644 0.8640037527674939 0.30582486709431883 0.8137103597750359 0.29890947401266416 L 0.755520722673043 0.2948057988821595 L 0.7305811728470345 0.348717136380009 C 0.7103511901290412 0.3944027004098227 0.6936986005484371 0.44158990285328636 0.6807735104796888 0.4898533984602899 C 0.6724074106971911 0.5355494482210544 0.6641921229601071 0.581213748077522 0.6641921229601071 0.6269177353143621 L 0.6641921229601071 0.6725820351708297 L 0.6184960731993417 0.6725820351708297 C 0.5727920859625016 0.6725820351708297 0.5271277861060342 0.6809481349533287 0.4814714237256404 0.6891951725947105 C 0.43323268933734005 0.7020888059703337 0.3860733071701114 0.7187259566065948 0.3404224738821796 0.7389552101056087 L 0.2822804616366341 0.7639423847880629 L 0.2905354367540897 0.8221161469379065 C 0.2971121512825865 0.8711040341877923 0.3068129979180665 0.9196215235098147 0.31957866171060295 0.9673719591008406 C 0.33248935401989915 1.012244495201233 0.35063760549710077 1.0554411701060131 0.3736487487299407 1.0960701961724124 L 0.39428618652358166 1.1376308208983774 L 0.3568768617845708 1.158347633452763 C 0.3184936277252731 1.1826518658631056 0.28242019150511927 1.2104249842846475 0.24910974912139408 1.241318070859273 C 0.2116151947780042 1.2746180906157754 0.17818151590546707 1.3122266499404014 0.14950236186277935 1.3533634831265942 L 0.11208509964769374 1.4033298950154285 L 0.14950236186277935 1.4530978700024009 C 0.1781728518373891 1.4942534851019247 0.21160723903536816 1.5318761627354134 0.24910974912139408 1.565182969650094 C 0.28229633658878456 1.5983695571174836 0.31549086153224776 1.6274524694543684 0.3569324241170928 1.6481772194848283 L 0.3943417488561037 1.6731167693108357 L 0.3737043110624627 1.710422906860879 C 0.35286843636695975 1.751975594110767 0.332111936432202 1.7934171566956125 0.31963422404312397 1.839073519076006 C 0.30732319865160906 1.884777506312846 0.2989570988691104 1.934545481299818 0.29059099908661173 1.9845118931886525 L 0.28233602396915514 2.046789330469001 L 0.34047803621470163 2.067466455643014 C 0.386129324572188 2.0877073004168327 0.43328837000812154 2.104360255403354 0.48152698605816546 2.11727411801036 C 0.5262488927597163 2.1289384043139936 0.5723380435858776 2.134526343413753 0.6185516355318648 2.13388725543424 L 0.6642476852926281 2.1379909305647447 L 0.6642476852926281 2.179615055099304 C 0.6642476852926281 2.225311104860069 0.6724629730297121 2.270975404716537 0.6808290728122118 2.3166397045730043 C 0.693074629528842 2.3651213729238267 0.709747213125078 2.412375858861527 0.7306367351795565 2.4578077165575833 L 0.7555762850055642 2.5158227291859365 L 0.8137500471554076 2.5076153789249274 C 0.8640387927744382 2.500675534349891 0.9139063603775744 2.490966476073794 0.9631254094009913 2.4785324665880437 C 1.0046860341269572 2.4660547541989644 1.0503900213637982 2.449441616775083 1.0876802839616924 2.424621129090194 L 1.1292409086876551 2.4037773169186165 L 1.1499577212420404 2.441194579133702 C 1.1742741867200617 2.480923095492908 1.202046490167111 2.518430048149352 1.2329519710767747 2.5532796787813954 C 1.2674518508335504 2.5882931185524867 1.3049426550460843 2.620227762208729 1.3449973833440938 2.6487198911009076 L 1.4072748206244439 2.6944238783377488 L 1.4654485827742871 2.6487198911009084 C 1.505470331106895 2.6201608743316136 1.54296939765612 2.588222536155314 1.5775336824219794 2.5532558663531715 C 1.6084684200058772 2.518401327773791 1.6362798664415747 2.480895317352772 1.660646994397832 2.441170766705478 L 1.6813320570479198 2.403753504490392 L 1.722765682156691 2.4245973166619694 C 1.7602226317521497 2.4494178043468597 1.8058789941325426 2.466030941770741 1.8515829813693825 2.478508654159819 C 1.8994075006864388 2.4909644253956245 1.9479053052195483 2.5006745869152582 1.9968387935323189 2.5075915664967035 L 2.0549728683017876 2.515798916757712 L 2.0798330433670507 2.457783904129358 C 2.1006817614146187 2.4123363463722116 2.1173504368510194 2.365085407156975 2.1296327682583214 2.316615892144781 C 2.1378401185193305 2.2709515922883123 2.1462141557779035 2.2252872924318448 2.1462141557779035 2.1795912426710795 L 2.1462141557779035 2.1380226804690428 L 2.1919102055386697 2.133919005338538 C 2.2380743378841905 2.13456221444031 2.2841142184054872 2.128974098577918 2.3287840429669546 2.117305867914658 C 2.3771019591041935 2.104398338243219 2.424340631644059 2.0877453792439127 2.470071117092652 2.0674982055473117 L 2.528244879242494 2.0468210803732996 L 2.5198787794599955 1.984543643092951 C 2.5115047422014216 1.934577231204117 2.503297391940412 1.8848092562171443 2.490787929647036 1.8391052689803042 C 2.4788922317543265 1.79392302862664 2.460749464544708 1.7506218990531597 2.4368845296252606 1.7104546567651773 L 2.4160407174536838 1.6731485192151343 L 2.4533468550037267 1.6482089693891266 C 2.494947167110062 1.6274842193586663 2.528260754194643 1.598401307021782 2.56543195465142 1.5652147195543924 C 2.600503444816533 1.5307122831864242 2.6324890710477926 1.4932075893384118 2.6610229790163493 1.4531296199066992 Z M 1.4072748206244439 0.8303234971989161 C 1.7234389408839774 0.830965766296012 1.9795500217149742 1.087165571259494 1.980082781539095 1.4033298950154287 C 1.9794930864212374 1.7194384144930892 1.7233833401021224 1.9755481608122119 1.4072748206244527 1.9761378559300797 C 1.2552277129881317 1.976550337323519 1.1092887284201074 1.9163345857801422 1.0017718123787605 1.8088236289132904 C 0.8942548963374144 1.7013126720464387 0.8340310559270664 1.5553770252807888 0.8344351098054948 1.4033298950154287 C 0.8339951517724068 1.2512536067277182 0.8942010941902468 1.1052767284464988 1.0017200746276267 0.9977264617423158 C 1.1092390550650062 0.8901761950381331 1.25519841077117 0.8299277844616546 1.4072748206244539 0.8303234971989161 Z M 1.440469345567908 1.2287847961376739 L 1.440469345567908 1.2287847961376739 L 1.440469345567908 1.2330472207896686 L 1.440469345567908 1.2330472207896686 L 1.440469345567908 1.2371508959201731 L 1.4446920828395304 1.2371508959201731 L 1.4446920828395304 1.2412942584310505 L 1.4446920828395304 1.2412942584310505 L 1.4446920828395304 1.245516995702672 L 1.4446920828395304 1.245516995702672 L 1.4446920828395304 1.2496603582135493 L 1.4446920828395304 1.2496603582135493 C 1.452978807861284 1.245516995702672 1.4572015451329063 1.2412942584310505 1.4654485827742882 1.2371508959201731 C 1.4736559330352978 1.2287847961376739 1.4903960700763705 1.2246811210071693 1.5027547203243317 1.2205774458766647 L 1.5111208201068305 1.2205774458766647 L 1.5111208201068305 1.2287847961376743 C 1.520136086723959 1.2406355999271734 1.5231792208774464 1.2559830715001015 1.5193678577482121 1.2703771707679348 L 1.5193678577482121 1.2910622334180224 C 1.5261786961784651 1.289311500995336 1.5330817627965876 1.287941487390127 1.5400449829222258 1.2869585582875178 C 1.5542495586843057 1.287671616293745 1.5682693801238292 1.290491095743708 1.5816452950285598 1.295324658070017 L 1.585748970159066 1.2994283332005216 L 1.585748970159066 1.303571695711399 C 1.5861026581064144 1.318396771157158 1.5817359217754416 1.3329507058668784 1.5732791952460612 1.345132320437362 C 1.5700750408245994 1.3525467024195497 1.564177654520454 1.3584696185345362 1.556777182487224 1.3617057704808702 C 1.5650321576046802 1.3658491329917475 1.573279195246062 1.3658491329917475 1.5775416198980565 1.369952808122252 C 1.5903984120054602 1.377372437271025 1.6016629752242 1.387258602069081 1.610688519985073 1.3990436579352108 L 1.6149588821131426 1.4033060825872052 L 1.610688519985074 1.4074097577177103 C 1.6028620336497217 1.420257812638868 1.5912967948564807 1.4304078605740278 1.5775416198980556 1.4365006075306692 C 1.571814062707634 1.4416138312651325 1.564452973179418 1.444520561189692 1.556777182487224 1.4447000203156037 C 1.5650321576046802 1.4488036954461085 1.5692945822566748 1.4572174200850545 1.573279195246062 1.461321095215559 C 1.581740824091763 1.4734973611398843 1.58610813638894 1.4880504355356354 1.585748970159065 1.5028737824654477 L 1.585748970159065 1.5111287575829042 L 1.5816452950285609 1.5111287575829042 C 1.5682630865643097 1.51593977271996 1.5542466466999745 1.5187585721126353 1.5400449829222258 1.519494857365403 C 1.532879608315353 1.520556290386948 1.5255682847051657 1.519088412364634 1.5193678577482121 1.5153435573784515 L 1.5193678577482121 1.5360683074089114 C 1.5236302824002068 1.5526814448327924 1.5193678577482121 1.5651591572218704 1.5111208201068305 1.5817722946457515 L 1.5111208201068305 1.5858759697762566 L 1.5027547203243317 1.5858759697762566 C 1.4904040075524447 1.5817722946457515 1.4736638705113732 1.5776209946588 1.4654485827742882 1.5692548948763008 C 1.4572015451329063 1.5692548948763008 1.452978807861284 1.5610475446152916 1.4446920828395304 1.5567851199632976 C 1.4446920828395304 1.5651591572218708 1.440469345567908 1.5692548948763008 1.440469345567908 1.5776209946588 C 1.4330572699953497 1.5904488391121554 1.4232325902541902 1.6017209408069502 1.4115372452764388 1.6108155196022638 L 1.4072748206244439 1.6149588821131409 L 1.3990674703634345 1.6108155196022638 C 1.3885371868828973 1.6015858079435643 1.3800206352658038 1.5902862461216467 1.3740485457766818 1.5776209946588 C 1.369944870646177 1.5692548948763008 1.3658411955156724 1.5651591572218708 1.3658411955156724 1.5567851199632976 C 1.357467158257099 1.5610475446152916 1.3533634831265944 1.5692548948763008 1.3491010584745995 1.5692548948763008 C 1.336087902607986 1.5766078683037212 1.3221545102227636 1.5821972406513563 1.307667433365828 1.5858759697762566 L 1.2994600831048189 1.5858759697762566 L 1.2994600831048189 1.5817722946457515 C 1.2926663798173428 1.567549393629294 1.2897763161279168 1.5517759464978116 1.2910860458462443 1.5360683074089114 C 1.2908073296032594 1.5289336434814826 1.2922131872676976 1.5218336543869975 1.2951897209767511 1.5153435573784515 C 1.2873392114410378 1.5187395621138216 1.2787774599059099 1.5201647040784534 1.2702501711507435 1.519494857365403 C 1.256103776146964 1.5187503589352174 1.242143505518535 1.5159315609960675 1.228816546041971 1.5111287575829042 L 1.2245461839139025 1.5111287575829042 L 1.2245461839139025 1.5028737824654477 C 1.2242653557881074 1.4880598915179817 1.2286285887918165 1.473529659473188 1.2370238963029814 1.4613210952155595 C 1.2412863209549754 1.4572174200850545 1.24538999608548 1.4488036954461085 1.2537560958679788 1.4447000203156037 C 1.2460464826726518 1.4445710789469448 1.238643470614641 1.4416589268312074 1.232912283696401 1.4365006075306688 C 1.2192023352747445 1.4303211523118535 1.2076474581507297 1.4201923255576043 1.1997256962290115 1.4074097577177103 L 1.1955823337181344 1.4033060825872052 L 1.1997256962290115 1.399043657935211 C 1.2088431698899336 1.38733007987842 1.2201055207267646 1.377457677147738 1.232912283696401 1.369952808122252 C 1.2370238963029814 1.3658491329917475 1.24538999608548 1.3658491329917475 1.2537560958679788 1.3617057704808702 C 1.2463273426900885 1.358431329083833 1.2403690047860072 1.3525295218999038 1.2370238963029814 1.3451323204373618 C 1.2286337901047397 1.332918285500095 1.224271151624464 1.3183872580937825 1.2245461839139025 1.303571695711399 L 1.2245461839139025 1.2994283332005216 L 1.228816546041971 1.295324658070017 C 1.2421371944676955 1.290499312483131 1.2561008461158185 1.2876798318629927 1.2702501711507435 1.2869585582875178 C 1.278616270933242 1.2869585582875178 1.2869823707157408 1.2910622334180224 1.2951897209767511 1.2910622334180224 C 1.2918609518271318 1.2847053661482646 1.2904361262759692 1.277523363466775 1.2910860458462454 1.270377170767935 C 1.2910860458462454 1.2537719708201287 1.2910860458462454 1.2412942584310505 1.2994600831048189 1.2287847961376743 L 1.2994600831048189 1.2205774458766647 L 1.307667433365828 1.2205774458766647 C 1.3221528816289163 1.2242388831701663 1.3360864667713284 1.2298123172271305 1.3491010584745995 1.2371508959201731 C 1.3538893080372902 1.242286924807166 1.3595588987742757 1.2465236602275023 1.3658411955156715 1.2496603582135493 L 1.3658411955156724 1.2496603582135493 L 1.3658411955156724 1.245516995702672 L 1.3658411955156724 1.245516995702672 L 1.3658411955156724 1.2412942584310505 L 1.369944870646178 1.2412942584310505 L 1.369944870646178 1.2371508959201731 L 1.369944870646178 1.2371508959201731 L 1.369944870646178 1.2330472207896686 L 1.369944870646178 1.2330472207896686 L 1.3740485457766827 1.2287847961376739 L 1.3740485457766827 1.2287847961376739 C 1.3783109704286778 1.21647377074616 1.3906616832005632 1.2080600461072137 1.3990674703634356 1.1955982086702845 L 1.4115372452764399 1.1955982086702845 C 1.4222762457283935 1.205655945883188 1.4319696787842708 1.2167748055832226 1.440469345567909 1.2287847961376739 Z M 1.4779183576872914 1.0254980963942373 L 1.4779183576872914 1.0254980963942373 L 1.4779183576872914 1.0296017715247419 L 1.4820220328177967 1.0296017715247419 L 1.4820220328177967 1.033745134035619 L 1.4820220328177967 1.033745134035619 L 1.4820220328177967 1.0378488091661238 L 1.4861257079483017 1.0378488091661238 L 1.4861257079483017 1.0421747336267138 L 1.4861257079483017 1.0421747336267138 L 1.4861257079483017 1.0462784087572186 L 1.4861257079483017 1.0462784087572186 L 1.4861257079483017 1.0503820838877231 L 1.4903960700763705 1.0503820838877231 L 1.4903960700763705 1.0545254463986005 L 1.4903960700763705 1.0545254463986005 L 1.4903960700763705 1.0587561211462968 L 1.4903960700763705 1.0587561211462968 L 1.4943648081136094 1.062899483657174 L 1.4943648081136094 1.062899483657174 L 1.4943648081136094 1.0670031587876787 L 1.4943648081136094 1.0670031587876787 L 1.4943648081136094 1.071098896442109 L 1.4943648081136094 1.071098896442109 C 1.5058370561264136 1.0589431088483634 1.5183725523110252 1.047836749545998 1.5318217577090667 1.03791230897472 C 1.5567613075350757 1.0212991715508386 1.589995519858911 1.0130918212898292 1.6231027325655563 1.008829396637835 L 1.6356201323350068 1.008829396637835 L 1.6397634948458841 1.017195496420334 C 1.652074520237399 1.0503820838877234 1.660599369541387 1.0794649962246081 1.6563369448893925 1.1126595211680719 C 1.6563369448893925 1.1292726585919528 1.6563369448893925 1.1458540461115359 1.6481295946283834 1.158363508404912 C 1.664544295150402 1.1542598332744074 1.6812844321914748 1.1542598332744074 1.6977785074742382 1.1499974086224127 C 1.7292732611257495 1.1509224590849976 1.7602827497609908 1.1580007119256504 1.7890594823307269 1.1708332833179158 L 1.8015292572437305 1.1749369584484204 L 1.8015292572437305 1.1874305457896472 C 1.7967610751877041 1.2198118740504689 1.785485559086085 1.250892445373683 1.7683823571567132 1.278798832882955 C 1.759995942953822 1.2921710648975449 1.7502901570287253 1.3046689262257518 1.7394105694848714 1.3161049704329983 C 1.7552185554266415 1.3197909132798042 1.7705279420894595 1.325357720719078 1.785011369532742 1.3326863579525812 C 1.8132081013083865 1.347420184432876 1.8373982418760046 1.3687908660492007 1.8554961570741004 1.3949558577568548 L 1.8638622568565992 1.4033298950154287 L 1.8554961570741004 1.4156409204069427 C 1.8351183489770568 1.439681605627759 1.8113789184486822 1.460656782646411 1.7850113695327432 1.4779183576872907 C 1.7684379194892343 1.4821807823392856 1.7559681445762299 1.4904278199806675 1.7394661318173914 1.4945314951111721 C 1.7522518301783805 1.5042495811556948 1.7622457410063777 1.5171704757303026 1.7684379194892343 1.5319884447066303 C 1.7861751179011098 1.5580143035137328 1.797530871721469 1.5878530694789628 1.8015848195762507 1.6190863696718691 L 1.8015848195762507 1.631556144584873 L 1.789115044663247 1.6399301818434464 C 1.760074257191527 1.6514085092544224 1.7290567997066555 1.657053686516669 1.6978340698067582 1.656543319267327 C 1.6810080595761947 1.6557628062904 1.6643378119222376 1.6529537829447134 1.6481851569609038 1.6481772194848279 C 1.6548811129549974 1.6638769674018237 1.6576963172971417 1.6809587778879083 1.6563925072219137 1.6979769443760984 C 1.660654931873907 1.7270201693326106 1.6521300825699181 1.7602543816564469 1.6398190571784041 1.7893055440890338 L 1.6356756946675268 1.8018150063824097 L 1.6231582948980763 1.7976716438715328 C 1.590011394811059 1.7934489065999109 1.5567771824872227 1.7852018689585292 1.5318773200415876 1.7686284189150205 C 1.5194075451285838 1.7602543816564469 1.5068901453591332 1.7479036688845608 1.4944203704461294 1.7395375691020616 C 1.4901705224464894 1.7551761012701637 1.4846679339794424 1.7704469123897604 1.4779659825437383 1.7852018689585292 C 1.4605898879721055 1.811541391627139 1.439568838005989 1.8352856109188935 1.4155297957419004 1.85572634388026 L 1.407322445480891 1.8640924436627586 L 1.3948526705678868 1.8557263438802594 C 1.370857898522754 1.8353211584931997 1.3499239528769678 1.8115696443745928 1.3326942954286556 1.7852018689585285 C 1.3259537816297837 1.7704321825434273 1.3203598667217444 1.7551656775785536 1.3159620958636573 1.739537569102062 C 1.3034446960942065 1.7479036688845608 1.2911336707026928 1.7602543816564473 1.2786559583136137 1.7686284189150205 C 1.2537957832483524 1.7852018689585292 1.2206409456852596 1.7934489065999115 1.1872559213160083 1.7976716438715328 L 1.1749448959244944 1.80181500638241 L 1.1706745337964255 1.7893055440890338 C 1.1591670744834226 1.760257590874063 1.1535339547626566 1.729216079615858 1.1541010837529166 1.6979769443760988 C 1.1548015839736134 1.6810924437253345 1.157614840267607 1.6643622352054104 1.16247512101149 1.6481772194848283 C 1.1461998188516498 1.6529506617242264 1.12941176566171 1.6557593296706068 1.1124690217422843 1.656543319267328 C 1.081250366549282 1.657004250351562 1.0502424387533043 1.6513608074926938 1.0211880468857957 1.6399301818434469 L 1.0087976467335367 1.631556144584873 L 1.0087976467335367 1.6190863696718691 C 1.0128775510886747 1.5878455186219609 1.0242634532194823 1.5580061338401734 1.0420318590573723 1.5319884447066303 C 1.0482514806699645 1.5171665497409774 1.0582692830143856 1.5042466237329621 1.0710750840138836 1.4945314951111721 C 1.0545016339703766 1.4904278199806675 1.0420318590573723 1.4821807823392856 1.0254107841574172 1.4779183576872916 C 0.9990028270927568 1.4606483480960737 0.975212104407125 1.4396750885239993 0.9547672470945694 1.4156409204069431 L 0.9465202094531876 1.4033298950154287 L 0.9547672470945694 1.3949558577568553 C 0.9729285019340191 1.3687938959089256 0.9971637003564335 1.3474267199565957 1.0253949092052688 1.3326863579525812 C 1.0398983992563953 1.3253432885684622 1.0552289470344969 1.3197632143380875 1.0710592090617381 1.3160652830526258 C 1.0601605552379614 1.3046275857997884 1.0504312170439258 1.2921302123338223 1.042015984105225 1.2787591455025826 C 1.0248680024954098 1.2508756515051123 1.0135438603484879 1.2198085128445284 1.008726209448868 1.1874305457896477 L 1.008726209448868 1.1749210834962713 L 1.0211166096011262 1.1708174083657668 C 1.0499128822324792 1.1580435151528068 1.0809106873552872 1.1509679292008617 1.1123975844576148 1.149981533670264 C 1.1291377214986869 1.1542439583222583 1.1456317967814507 1.1542439583222583 1.1624036837268206 1.158347633452763 C 1.157193928958675 1.1436567483326363 1.154366891824983 1.1282272887915965 1.1540296464682482 1.1126436462159228 C 1.1534616253598091 1.080048118075315 1.1591023392790165 1.0476422974219832 1.1706507213682014 1.0171558090399626 L 1.1749210834962711 1.0087897092574625 L 1.1872321088877862 1.0087897092574625 C 1.2206171332570375 1.0130521339094567 1.2537719708201291 1.0212594841704663 1.2786321458853915 1.0378726215943472 C 1.2920217948471673 1.0478130996254624 1.3045058321999625 1.0589185805131303 1.3159382834354352 1.0710592090617368 L 1.3159382834354352 1.0710592090617368 L 1.3159382834354352 1.0669634714073062 L 1.3159382834354352 1.0669634714073062 L 1.3159382834354352 1.0628597962768016 L 1.3201610207070564 1.0628597962768016 L 1.3201610207070564 1.0587164337659245 L 1.3201610207070564 1.0587164337659245 L 1.3201610207070564 1.054485759018228 L 1.3201610207070564 1.054485759018228 L 1.3201610207070564 1.0503423965073508 L 1.3243043832179346 1.0503423965073508 L 1.3243043832179346 1.046238721376846 L 1.3243043832179346 1.046238721376846 L 1.3243043832179346 1.0421747336267138 L 1.3243043832179346 1.0421747336267138 L 1.3243043832179346 1.0379123089747195 L 1.3284080583484394 1.0379123089747195 L 1.3284080583484394 1.0338086338442147 L 1.3284080583484394 1.0338086338442147 L 1.3284080583484394 1.0296652713333376 L 1.3326704830004343 1.0296652713333376 L 1.3326704830004343 1.0255060338703117 L 1.3326704830004343 1.0255060338703117 C 1.3476358006441176 0.997466920714391 1.3689055266264925 0.9732844269429113 1.3948050457114405 0.9548624968074642 L 1.4072748206244439 0.9466551465464546 L 1.415482170885453 0.9548624968074642 C 1.441436900786572 0.9733100324062697 1.4627998727208942 0.9974812058381888 1.4779183576872914 1.0255060338703117 Z M 0.6434514979774978 1.1292091587833568 C 0.6684386726599527 1.058692621337701 0.7056098731167301 0.9964072465812781 0.7473292473641823 0.9341298093009296 L 0.7637836352665734 0.9091902594749222 C 0.772149735049072 0.9009432218335403 0.7805237723076455 0.8925771220510411 0.7887708099490273 0.8843697717900317 C 0.7430668227121873 0.863486272238082 0.6973628354753482 0.8552868594531472 0.647594860488376 0.8510323722772273 C 0.5940432764222853 0.8512048165654401 0.5408381928647522 0.8596301372495622 0.4898533984602895 0.8760116094836069 C 0.5022733460656316 0.9282588443890626 0.5217932024377532 0.9785580610962117 0.5478684110886445 1.0255060338703128 C 0.5741039816517378 1.0648667784028132 0.6063578947069523 1.0998634258018691 0.6434514979774998 1.1292170962594315 Z M 0.6103045978904809 1.5444344071914105 C 0.6017925737407874 1.5062558887025639 0.5975964406059034 1.467241968128037 0.5977951355971041 1.4281265702720953 L 0.5977951355971041 1.3783189079047506 C 0.5978182245292752 1.33925449902412 0.6020118093751751 1.3003041849541326 0.6103045978904769 1.262130133126568 C 0.5627911141644918 1.2689667316655862 0.5165821923839571 1.2829380532208425 0.473240261036407 1.3035716957113983 C 0.4275759611799395 1.3285191830134806 0.38614233607116916 1.3658491329917468 0.34868538647570996 1.403306082587205 C 0.3843029733055354 1.443269940987404 0.4264132633479486 1.4769324109269932 0.473240261036408 1.5028737824654481 C 0.5158674877063589 1.5253229539059805 0.562388098585952 1.5394289255625446 0.6103045978904809 1.5444344071914105 Z M 0.6434514979774978 1.681339994523994 C 0.6044562043700258 1.708633212699139 0.5718453811986185 1.7440604497634424 0.5478684110886425 1.7851780565303055 C 0.5225068261313286 1.8309682089630013 0.5030150192101813 1.8797710638893934 0.4898533984602885 1.9304338686932396 C 0.5408280795039069 1.946828960157367 0.5940249849387965 1.955270321145601 0.6475710480601509 1.955460730756066 C 0.697339023047124 1.955460730756066 0.743043010283964 1.9429433309866155 0.7887469975208041 1.9263698809431071 C 0.7815050242251438 1.9157921496140804 0.7731259790679016 1.906039665034622 0.7637598228383482 1.8972869686062224 C 0.759616460327472 1.8890319934887663 0.7512503605449734 1.880665893706267 0.7473054349359581 1.8722997939237684 L 0.7305732353709607 1.8515829813693823 L 0.7264616227643814 1.8433756311083729 C 0.6932353479166193 1.7934489065999115 0.6684148602317286 1.7395375691020616 0.6434276855492747 1.6813638069522177 Z M 1.1292250337355059 2.162986042723274 C 1.0469387933329777 2.1338848469404414 0.9698346478202606 2.0918143984609223 0.9008320971684979 2.038367668353981 L 0.8842189597446174 2.0217862808343976 C 0.8676455097011094 2.067450580690865 0.8551677973120304 2.1131545679277055 0.8551677973120304 2.1629622302950504 C 0.8519212109270918 2.2150227533862554 0.8589497236056024 2.2672133707469024 0.8758528599621177 2.316560329812259 C 0.9292028341597215 2.307828743966252 0.9801390815325206 2.2880436347160322 1.0253949092052688 2.258473879899235 C 1.0665264488179955 2.234566715917144 1.1019597298334625 2.2019909575642154 1.1292329712115796 2.1630098551514974 Z M 1.548426957656873 2.200292180273317 C 1.5152800575698555 2.2045546049253106 1.4861495203765245 2.208658280055816 1.453002620289507 2.212769892662395 L 1.3574909706853222 2.212769892662395 C 1.3243043832179326 2.208658280055816 1.2952135334049741 2.2045546049253106 1.2661306210680894 2.200292180273317 C 1.2702969225576572 2.248361726688455 1.2844524124633618 2.2950321281861967 1.3076912457940513 2.3373168297470164 C 1.3326077449301434 2.3836550466911683 1.3664626724718922 2.4245944462804614 1.407298633052667 2.4577680291772093 C 1.445799827180486 2.42339463319531 1.4780955369859463 2.382649089771809 1.5027705952764796 2.3373168297470173 C 1.5253709711069576 2.2944420597965727 1.540794041153654 2.2481540802736015 1.5484269576568723 2.2002921802733164 Z M 1.926195256469469 2.02182596821477 L 1.9220915813389645 2.025929643345275 C 1.9137254815564655 2.0343036806038484 1.905518131295456 2.038407355734353 1.8973107810344467 2.0468131428972245 L 1.8930483563824523 2.0468131428972245 C 1.8296664439894137 2.0973916268230943 1.7580588033743443 2.1366939381588046 1.6813558694761443 2.1630019176754227 C 1.7084722682163225 2.2020562508432167 1.743863690185034 2.234653541863943 1.785011369532742 2.258473879899235 C 1.8302352813829363 2.2880246815480776 1.8811226557190555 2.3078238278314256 1.9344264191587026 2.3166079546687066 C 1.9515408071892786 2.2673092271533353 1.958627594853116 2.2150866726663136 1.9552702313302792 2.1630098551514974 C 1.9552702313302792 2.1132021927841524 1.9428004564172756 2.0674982055473126 1.9261396941369477 2.021833905690845 Z M 2.167097655329854 1.681355869476143 C 2.143332684151315 1.7427281743621985 2.112711590281832 1.8012197890605413 2.075816680473365 1.8557184064041847 L 2.046686143280034 1.8972790311301475 C 2.0375042192623596 1.9051577004589044 2.030357015094998 1.9151338361043182 2.0258502685845308 1.9263619434670318 C 2.069230922168624 1.9447323882293641 2.1157328801344897 1.9546104840633465 2.162835230677859 1.955460730756066 C 2.216425497108883 1.955606442386815 2.269693435662715 1.9471706102826059 2.320616380086318 1.9304735560736117 C 2.3073842996817073 1.8798111309730614 2.2878428248000113 1.8310107774884776 2.262450555412549 1.785217743910678 C 2.238568693761518 1.7441025865293815 2.2060329080454566 1.7086715411004698 2.167097655329854 1.6813796819043667 Z M 2.2003318676536905 1.2621460080787017 C 2.2085337018806377 1.3003340009514603 2.212713094583426 1.3392760444800542 2.212801642566694 1.3783347828569006 L 2.212801642566694 1.4281424452242444 C 2.212934025237798 1.467252282785625 2.2087521479201135 1.506257405851206 2.2003318676536887 1.544450282143566 C 2.2481721245619246 1.539379372007308 2.294615616764722 1.525276366429749 2.3371977676059017 1.5028896574175967 C 2.3840487329284827 1.4769978151425829 2.4261586269873563 1.4433319090185184 2.461728829738375 1.4033298950154287 C 2.4244226921883314 1.3658729454199705 2.382870004938443 1.328542995441704 2.337173955177678 1.303595508139622 C 2.293877554390341 1.2830241749345963 2.247743585078965 1.269055291690689 2.200308055225466 1.2621539455547763 Z M 2.167097655329854 1.1292250337355056 C 2.2041237208220275 1.0998728510707754 2.2362944465853083 1.0648707800009345 2.2624267429843252 1.0255060338703117 C 2.288534888926223 0.9785541094719697 2.308104532905192 0.9282546765647799 2.3205925676580934 0.8760036720075336 C 2.269675892286471 0.8593172113909762 2.2164162258324946 0.8508894553659319 2.1628352306778593 0.8510403097533018 C 2.1130672556908867 0.8553106718813704 2.0674029558344187 0.8635100846663055 2.0258105812041585 0.8843777092661061 C 2.0258105812041585 0.8884813843966108 2.0300730058561527 0.8925850595271158 2.0341766809866573 0.8966807971815459 L 2.0466464558996615 0.9091981969509965 L 2.071514568440999 0.9423847844183858 L 2.071514568440999 0.9507508842008848 C 2.112240713388825 1.0050487662319825 2.144470383118492 1.0652258044483793 2.167097655329854 1.1292170962594317 Z M 1.681324119571846 0.6434514979774979 C 1.751183336379077 0.6681004243990158 1.8169435129523275 0.7031036644173767 1.8764034690542735 0.7472895599838095 L 1.8972790311301484 0.7639026974076901 C 1.9075915803386663 0.7698003887288772 1.917270602711649 0.7767424740252455 1.9261635065651712 0.784619509962076 C 1.9441943035165197 0.7411035921679866 1.9540687046503005 0.6946427859614122 1.9552940437585034 0.6475551731080028 C 1.9589180663467163 0.5941113359490781 1.9518315251551697 0.5404819250200599 1.9344502315869259 0.48981371107991667 C 1.8805388940890768 0.5023231733732925 1.8307391691978063 0.5188966234168009 1.7850351819609664 0.5479795357536856 C 1.7448129060805462 0.5730566367412568 1.7096374147740496 0.6054376875168991 1.681324119571846 0.6434514979774977 Z M 1.548395207752576 0.6061453604274548 L 1.544299470098146 0.6019940604405032 L 1.5400291079700774 0.5770545106144958 L 1.5360603699328386 0.5604334357145403 L 1.5360603699328386 0.5480192231340583 L 1.5276942701503398 0.5273024105796726 L 1.5193281703678407 0.5064665358841698 L 1.5110811327264593 0.48574178585370975 L 1.50271503294396 0.47327201094070603 C 1.4791444739686914 0.42604182932513185 1.4467476772021917 0.38376217739067525 1.4072748206244439 0.348717136380009 C 1.3663437246456853 0.3834166385104799 1.3325187288024494 0.42571338205754033 1.3076674333658291 0.47327201094070587 L 1.2951897209767511 0.4898533984602889 L 1.2910860458462454 0.5107289605361641 L 1.2827199460637468 0.5314060857101773 L 1.2745125958027375 0.5563932603926317 L 1.2702501711507435 0.5771100729470173 L 1.2661068086398652 0.5895877853360956 L 1.2661068086398652 0.6062009227599764 C 1.299147357347964 0.601357720039379 1.3324556375158814 0.5985610439090844 1.3658411955156724 0.597826885501403 L 1.4404534706157586 0.597826885501403 C 1.4765593787396176 0.598708941391438 1.512593153619063 0.6015042084868658 1.5484031452286477 0.6062009227599762 Z M 1.594099194989416 0.7306922975120774 L 1.544299470098146 0.7181828352187013 C 1.5152483076655596 0.7140791600881965 1.4861177704722275 0.7098167354362022 1.4571936076568326 0.7057130603056975 L 1.3533555456505206 0.7057130603056975 C 1.324272633313637 0.7098167354362023 1.2910781083701728 0.7140791600881965 1.2619951960332878 0.7181828352187013 L 1.2370159588269076 0.7264298728600832 L 1.1788342592009886 0.7431620724250813 L 1.1416630587442123 0.7555207226730422 L 1.1167235089182046 0.767990497586046 L 1.1124531467901349 0.767990497586046 C 1.0917760216161223 0.776356597368545 1.0751470092400923 0.7887073101404316 1.0544460716378556 0.7970734099229305 C 1.033602259466279 0.8095511223120089 1.017139934087812 0.822060584605385 0.9962723094880123 0.8343795474729737 L 0.9796988594445043 0.8509926848968546 C 0.9543604156681806 0.8681010546407085 0.9307061194016999 0.8875799689482404 0.9090553223816566 0.9091664470466989 C 0.8925612470988928 0.9257398970902068 0.8758290475338946 0.9466233966421564 0.859414347011876 0.963196846685665 L 0.8301647476774271 1.0046304717944363 L 0.8178140349055405 1.0212118593140191 C 0.8137103597750359 1.0337213216073953 0.8053442599925362 1.0420874213898943 0.8012405848620326 1.054438134161781 C 0.7887708099490283 1.0710115842052894 0.7805237723076465 1.091895083757239 0.7680063725381958 1.1125722089312522 L 0.7430668227121883 1.1789930087224778 L 0.7387964605841195 1.1955743962420609 L 0.7348277225468811 1.2121875336659416 L 0.7305652978948861 1.2205536334484406 C 0.7264536852883067 1.2287609837094504 0.7264536852883067 1.237127083491949 0.7223103227774305 1.2454931832744482 L 0.7180875855058081 1.2621063206983292 C 0.7139442229949308 1.2994124582483721 0.7098405478644262 1.332638733096134 0.7055781232124312 1.3658253205635231 L 0.7055781232124312 1.4406360325654717 C 0.7091472659102369 1.478270049406909 0.7147326908564927 1.5156855075027742 0.7223103227774305 1.5527211322131724 L 0.7387647106798206 1.6108552069826363 L 0.7512424230688987 1.6481613445326793 L 0.7637518853622746 1.6813479320000688 L 0.7679746226338969 1.6979610694239498 C 0.7804920224033476 1.7145424569435326 0.7887390600447295 1.7353783316390354 0.8012088349577338 1.7519914690629164 C 0.8105000090175966 1.7744792616751106 0.8230718994625292 1.7954662941072248 0.8385149725077773 1.8142689063432649 L 0.8510323722772279 1.8308899812432202 C 0.8681313297194013 1.8548760716134363 0.8875616748763223 1.8771114269154807 0.9090394474295072 1.8972710936540729 C 0.9476592319047824 1.9339322216548582 0.9893277536696456 1.967241547235947 1.0335943219902042 1.996838793532316 C 1.0460720343792822 2.005204893314815 1.0585418092922865 2.0093561933017665 1.0667888469336684 2.017714355608191 L 1.0792586218466726 2.0218180307386957 C 1.0867263161785305 2.0249633483040697 1.0937032351988238 2.029165538610545 1.0999754344010588 2.034295743127774 L 1.1042457965291266 2.034295743127774 C 1.1412208196173466 2.053775692184862 1.180238185759627 2.0691036579518842 1.2205853833527396 2.079999730364614 L 1.2537402209158321 2.088199143149549 C 1.2976832243773828 2.0960772608540785 1.3420126023127075 2.1016227385911312 1.386542133117909 2.1048122805734297 L 1.4238482706679538 2.1048122805734297 C 1.5324813881757262 2.100363872598914 1.6387989299513464 2.07202698203542 1.7352354570696968 2.0218180307386957 L 1.7434824947110787 2.017714355608191 C 1.7518565319696515 2.0093561933017665 1.7643659942630279 2.005204893314815 1.7766770196545425 1.996838793532316 C 1.8217395106212946 1.9683435920895338 1.863511800432733 1.9349513155540583 1.9012318942152404 1.8972710936540718 C 1.9189073451529988 1.8802614079393225 1.9356029050766304 1.8622620042883211 1.9512379934844477 1.843359756156222 L 1.980122468919469 1.8017991314302613 L 1.9926319312128453 1.7851859940063801 C 1.9969022933409142 1.776819894223881 2.005141393506222 1.7644612439759202 2.013348743767231 1.7519914690629164 C 2.0214741200628783 1.733155732921039 2.0312488078409503 1.7150752166967622 2.0425586557213067 1.6979610694239504 L 2.06741883078657 1.6315402696327241 L 2.0757928680451436 1.6108234570783384 L 2.0798965431756486 1.5983536821653346 L 2.0798965431756486 1.5858918447284056 C 2.0840002183061537 1.5776368696109488 2.0840002183061537 1.573414132339327 2.0882626429581475 1.5651750321740199 L 2.092231380995386 1.5444502821435595 C 2.09649380564738 1.5111128826307554 2.100597480777885 1.477910420211217 2.10470115590839 1.4406122201372482 L 2.10470115590839 1.365865007943896 C 2.101245182666128 1.3282384124936377 2.0957656837811416 1.2908251996038855 2.088286455386372 1.2537878457722798 L 2.0758166804733675 1.1956140836224334 L 2.063307218179991 1.1583079460723904 L 2.0466861432800356 1.1251134211289266 L 2.042582468149531 1.1126039588355505 C 2.0301126932365268 1.0919268336615373 2.021746593454028 1.0710433341095875 2.0133725561954545 1.054469884066079 C 2.0019941307955134 1.0334925420327448 1.9880784220728467 1.013994554753514 1.9719389310866828 0.9964151840573524 L 1.959469156173679 0.9755793093618499 C 1.9412984301267486 0.9524117090458712 1.921878368065759 0.9302517992333383 1.9012953940238357 0.9091981969509961 C 1.880610331373748 0.8925850595271158 1.863989256473792 0.8760036720075327 1.8432803813954817 0.8593905345836519 L 1.8016800692891468 0.8303076222467671 L 1.7892102943761425 0.8178378473337634 C 1.7767405194631387 0.8095908096923815 1.7644294940716247 0.8054791970858023 1.756063394289125 0.7971130973033034 C 1.735298956878293 0.7887469975208042 1.718757256739082 0.7763962847489178 1.6978896321392818 0.7680301849664187 L 1.6482407192934267 0.7473133724120332 Z M 1.1291932838312089 0.643435623025349 C 1.1007479963479354 0.6055248072484766 1.0655611789283932 0.5731794121119534 1.0253949092052697 0.5480192231340583 C 0.9797385468248759 0.5189363107971736 0.9299308844575311 0.5023628607536651 0.8758607974381925 0.48985339846028897 C 0.8586928608721675 0.5405697297500738 0.8516645304053112 0.5941668177653583 0.8551757347881052 0.6475948604883752 C 0.8564163460745392 0.6946727125881695 0.8662622582030128 0.7411260488271044 0.8842268972206901 0.7846591973424466 C 0.8883702597315694 0.7805158348315713 0.8925929970031907 0.7764121597010667 0.8967442969901417 0.7721497350490724 L 0.9133574344140223 0.7639423847880629 L 0.9465043345010401 0.7389552101056085 L 0.9506476970119173 0.7348594724511783 C 1.00663134848563 0.6979176514051753 1.0665259218029988 0.6672755876960091 1.1292409086876551 0.6434911853578706 Z" fill="#ffffff" transform="matrix(1,0,0,1,0,0)" fill-rule="evenodd"></path></g></g><g transform="matrix(-0.10245930201149912,-0.9947371971688383,0.9947371971688383,-0.10245930201149912,-3.0985615980289065,0.4191185405185376)"><g clip-path="url(&quot;#SvgjsClipPath1022&quot;)"><path d=" M -1.5663545401943586 1.738419038656808 C -1.532651680178125 1.7402030855723922 -1.4989403557057224 1.7350614710431715 -1.4673026059573457 1.723308899208756 C -1.4451048952105925 1.7127174771308338 -1.427969797402151 1.6938113546470677 -1.4196051784086445 1.6706838559457688 C -1.412699050324229 1.681442396773691 -1.4034793042203328 1.6905232389814833 -1.3926165854703327 1.6972622483158988 C -1.3797332491066965 1.7048303402801845 -1.3646165985385146 1.7076713590301846 -1.3498645706976053 1.7052926298094053 C -1.3351125428566963 1.7029160709620026 -1.3216518871748781 1.6954716902801845 -1.311798392045008 1.6842400080561586 C -1.2985938404216315 1.6699372475042105 -1.2914402897722808 1.6510767028613533 -1.2918396384735795 1.6316149647931715 C -1.2929964474833198 1.6100197496957689 -1.2983963364443587 1.5888629500204443 -1.3077332827105925 1.5693556341113535 L -1.3312688116066964 1.5803398937704443 C -1.3278092364443588 1.5877799337055092 -1.3258580707787744 1.595832018932782 -1.325526003652151 1.6040316895496651 C -1.3248640397722808 1.6129367315139507 -1.327555302759294 1.621770151156808 -1.3330723918826703 1.6287913090301847 C -1.3360349515417613 1.6317234834620027 -1.339592193506047 1.6339828421470677 -1.3435032063307224 1.635421799695769 C -1.3474163895287743 1.6368585868710936 -1.351590017532021 1.6374380765626522 -1.355746282548255 1.6371233724230416 C -1.3605211039768264 1.6372058466113533 -1.3652590290579951 1.6362877786730416 -1.369656205519034 1.6344255983158988 C -1.374053381980073 1.632563417958756 -1.378012143019034 1.6298005326503144 -1.381274214204099 1.6263127426340807 C -1.3846925522722808 1.622779374776938 -1.3873751337657874 1.6186014060269378 -1.389163521428125 1.6140219182022624 C -1.3909519090904627 1.6094424303775872 -1.3918113769476055 1.6045525791600546 -1.3916920064118912 1.5996388538353794 C -1.3912232057625404 1.587792955945769 -1.3879567938307225 1.5762248658483664 -1.382161896915138 1.5658808663353794 C -1.3763669999995536 1.555539037195769 -1.3682085664768262 1.5467121286730416 -1.358350730600203 1.5401250454749897 C -1.3367707081164366 1.5228901104912236 -1.3098993153404628 1.5136399791600548 -1.2822834844963067 1.5139388395740156 C -1.254096845454099 1.5133567454344052 -1.2268304447235796 1.523994830539925 -1.206485364691112 1.5435151686892754 C -1.196521180519034 1.5524918329749897 -1.1885819547073457 1.5634869445009638 -1.18319291761319 1.5757690874392756 C -1.177803880519034 1.5880490600042105 -1.1750909137982548 1.6013382561892755 -1.1752298176943587 1.6147489932834314 C -1.1741793569800731 1.6400229912542106 -1.183060524837216 1.6647066476665482 -1.1999742445612418 1.683517273721743 C -1.2175455874183847 1.7017245359782365 -1.2416237096586444 1.7122139505074572 -1.2669237521099432 1.712687091903561 L -1.2669237521099432 1.7384798091113534 L -1.258435421833969 1.7384798091113534 C -1.2171223646099432 1.7404396562704443 -1.1764430564118913 1.7277538238840806 -1.1435684108761768 1.7026599669035611 C -1.1294305987008522 1.6914109216925222 -1.1181121015417612 1.6770170054587559 -1.1105157947235795 1.6606263457184962 C -1.1029194879053978 1.64423351560486 -1.099251556898904 1.6262953796470676 -1.0998071724833198 1.6082378731535611 C -1.0995402165579953 1.5898808551340806 -1.103177762337216 1.5716779336243403 -1.1104810687495537 1.554835836221743 C -1.1177843751618912 1.5379937388191456 -1.1285884938307225 1.5228987919847299 -1.1421706904216316 1.5105498015464183 C -1.1558787686683847 1.4974179574311586 -1.1720393688307225 1.487116714273691 -1.1897300822235795 1.480235328445769 C -1.2074207956164367 1.4733539426178468 -1.2262943624995537 1.4700274113434961 -1.2452721073047484 1.4704458593305092 C -1.2923409947235796 1.4704458593305092 -1.3416866038144886 1.490764460807782 -1.393306764204099 1.5314023148743403 L -1.4089985637170859 1.5439535841113534 C -1.440607881574229 1.5689649669035612 -1.465189747475203 1.5814684879262884 -1.4827417740092939 1.5814684879262884 C -1.492327228027151 1.5814033767249898 -1.501501396290138 1.5775683269684961 -1.5082807745693587 1.5707902509133014 C -1.515060369885917 1.5640143452314832 -1.5189004115011768 1.5548423473418729 -1.5189700804865665 1.5452558081373273 C -1.5189900479216314 1.5395585780236911 -1.5177631358518262 1.5339242887379767 -1.5153750740255276 1.5287501186081067 C -1.5129872292365665 1.5235759484782365 -1.5094964006976055 1.518986259898691 -1.5051471894881898 1.5153040044279118 C -1.496127768846956 1.5070222936973923 -1.484268197605073 1.5025278845090806 -1.4720253384248783 1.5027518670415483 C -1.4632121032544236 1.5033063974392755 -1.4546083091148132 1.5056764451665483 -1.4467543789768262 1.5097129055723923 C -1.4388997977268263 1.5137493659782364 -1.431963284415138 1.5193654241275871 -1.4263832544638393 1.5262086113840807 L -1.4065503825482548 1.509263204208756 C -1.4163365961034495 1.4924315245983664 -1.4304917712657872 1.4785584979749897 -1.4475163970693588 1.469112381927912 C -1.4645414569476054 1.459666265880834 -1.4838037377024755 1.45499844385973 -1.503264390583969 1.4556028928451197 C -1.528048101208969 1.454673104890574 -1.5522935592365665 1.4629823793629768 -1.5712969144476054 1.4789185629181716 C -1.5799185056489042 1.4861059713921976 -1.586810309269034 1.4951431890951197 -1.5914605512657873 1.5053591365788859 C -1.5961107932625405 1.515575084062652 -1.5983998860628652 1.5267077972607042 -1.598158323506047 1.537928627617847 C -1.598277911079099 1.5461326389814833 -1.5967742764037742 1.5542780502639508 -1.593734234415138 1.5618982311892755 C -1.5906941924265015 1.5695205824879768 -1.5861776454297483 1.5764636069197948 -1.5804441700807224 1.5823322965301845 C -1.5677481369394886 1.5952112921470678 -1.5512444007463067 1.6036605557022625 -1.5333737634005276 1.6064321225042106 C -1.5447432643339691 1.6119513820009637 -1.55476474636319 1.6198949485594054 -1.5627319699914366 1.6297072065951195 C -1.5706991936196835 1.6395172942574572 -1.5764185615417612 1.6509551619522624 -1.5794872524589691 1.663215601156808 L -1.5836450367365664 1.6762378414165482 C -1.5863849160872159 1.6868336042412235 -1.5914078111927352 1.6967044623581065 -1.5983623386034496 1.705155896286678 C -1.6013902265011768 1.7078276259133014 -1.604919470648904 1.709869947260704 -1.6087443196505276 1.7111656601665481 C -1.6125693856894885 1.7124613730723923 -1.6166138764768263 1.7129844330561586 -1.6206425235385145 1.7127022845171975 L -1.6206425235385145 1.7384971720983664 L -1.5663545401943586 1.738419038656808 Z M -1.5408580789524755 1.7147098798905742 C -1.5262423505596185 1.7083919229912234 -1.5143940652592938 1.6970169961243404 -1.5074851156894886 1.68267082810486 L -1.5030603754865666 1.6751244398743403 C -1.4818473631407874 1.6376138768061586 -1.458552528652151 1.6164266919035613 -1.4331765231326705 1.6115628851665482 C -1.4387305086034496 1.6803376767249898 -1.4746245775807223 1.7147207317574573 -1.5408580789524755 1.7147098798905742 Z" fill="#ffffff" transform="matrix(1,0,0,1,0,0)" fill-rule="nonzero"></path></g></g><g transform="matrix(0.10245930201149912,-0.9947371971688383,-0.9947371971688383,-0.10245930201149912,5.342428277596748,5.920970651071491)"><g clip-path="url(&quot;#SvgjsClipPath1023&quot;)"><path d=" M 3.96460592475256 1.738419038656808 C 3.9983087847687937 1.7402030855723922 4.032020109241197 1.7350614710431715 4.063657858989573 1.723308899208756 C 4.085855569736326 1.7127174771308338 4.102990667544768 1.6938113546470677 4.1113552865382745 1.6706838559457688 C 4.1182614146226895 1.681442396773691 4.127481160726586 1.6905232389814833 4.138343879476586 1.6972622483158988 C 4.151227215840223 1.7048303402801845 4.166343866408404 1.7076713590301846 4.181095894249313 1.7052926298094053 C 4.1958479220902225 1.7029160709620026 4.20930857777204 1.6954716902801845 4.21916207290191 1.6842400080561586 C 4.232366624525287 1.6699372475042105 4.239520175174638 1.6510767028613533 4.239120826473339 1.6316149647931715 C 4.237964017463598 1.6100197496957689 4.23256412850256 1.5888629500204443 4.223227182236326 1.5693556341113535 L 4.199691653340222 1.5803398937704443 C 4.20315122850256 1.5877799337055092 4.2051023941681445 1.595832018932782 4.205434461294768 1.6040316895496651 C 4.206096425174638 1.6129367315139507 4.203405162187625 1.621770151156808 4.197888073064248 1.6287913090301847 C 4.194925513405157 1.6317234834620027 4.191368271440871 1.6339828421470677 4.187457258616196 1.635421799695769 C 4.183544075418144 1.6368585868710936 4.179370447414898 1.6374380765626522 4.175214182398664 1.6371233724230416 C 4.170439360970092 1.6372058466113533 4.1657014358889235 1.6362877786730416 4.161304259427885 1.6344255983158988 C 4.156907082966845 1.632563417958756 4.152948321927885 1.6298005326503144 4.149686250742819 1.6263127426340807 C 4.146267912674638 1.622779374776938 4.143585331181131 1.6186014060269378 4.141796943518794 1.6140219182022624 C 4.140008555856456 1.6094424303775872 4.139149087999313 1.6045525791600546 4.139268458535027 1.5996388538353794 C 4.139737259184378 1.587792955945769 4.143003671116197 1.5762248658483664 4.148798568031781 1.5658808663353794 C 4.154593464947365 1.555539037195769 4.162751898470092 1.5467121286730416 4.1726097343467154 1.5401250454749897 C 4.194189756830482 1.5228901104912236 4.221061149606456 1.5136399791600548 4.248676980450612 1.5139388395740156 C 4.276863619492819 1.5133567454344052 4.304130020223339 1.523994830539925 4.324475100255807 1.5435151686892754 C 4.3344392844278845 1.5524918329749897 4.342378510239572 1.5634869445009638 4.347767547333729 1.5757690874392756 C 4.353156584427884 1.5880490600042105 4.355869551148664 1.6013382561892755 4.35573064725256 1.6147489932834314 C 4.356781107966846 1.6400229912542106 4.347899940109703 1.6647066476665482 4.330986220385677 1.683517273721743 C 4.313414877528534 1.7017245359782365 4.289336755288274 1.7122139505074572 4.264036712836975 1.712687091903561 L 4.264036712836975 1.7384798091113534 L 4.27252504311295 1.7384798091113534 C 4.313838100336976 1.7404396562704443 4.354517408535028 1.7277538238840806 4.387392054070742 1.7026599669035611 C 4.401529866246066 1.6914109216925222 4.412848363405157 1.6770170054587559 4.420444670223339 1.6606263457184962 C 4.428040977041521 1.64423351560486 4.431708908048014 1.6262953796470676 4.431153292463598 1.6082378731535611 C 4.431420248388924 1.5898808551340806 4.4277827026097025 1.5716779336243403 4.420479396197365 1.554835836221743 C 4.413176089785027 1.5379937388191456 4.402371971116196 1.5228987919847299 4.3887897745252875 1.5105498015464183 C 4.375081696278534 1.4974179574311586 4.358921096116196 1.487116714273691 4.341230382723339 1.480235328445769 C 4.323539669330482 1.4733539426178468 4.304666102447365 1.4700274113434961 4.2856883576421705 1.4704458593305092 C 4.238619470223339 1.4704458593305092 4.18927386113243 1.490764460807782 4.13765370074282 1.5314023148743403 L 4.121961901229833 1.5439535841113534 C 4.09035258337269 1.5689649669035612 4.0657707174717155 1.5814684879262884 4.048218690937625 1.5814684879262884 C 4.038633236919768 1.5814033767249898 4.029459068656781 1.5775683269684961 4.02267969037756 1.5707902509133014 C 4.015900095061001 1.5640143452314832 4.012060053445742 1.5548423473418729 4.011990384460352 1.5452558081373273 C 4.011970417025287 1.5395585780236911 4.013197329095092 1.5339242887379767 4.015585390921391 1.5287501186081067 C 4.017973235710352 1.5235759484782365 4.021464064249313 1.518986259898691 4.025813275458729 1.5153040044279118 C 4.034832696099962 1.5070222936973923 4.046692267341846 1.5025278845090806 4.058935126522041 1.5027518670415483 C 4.0677483616924945 1.5033063974392755 4.076352155832105 1.5056764451665483 4.084206085970092 1.5097129055723923 C 4.0920606672200925 1.5137493659782364 4.09899718053178 1.5193654241275871 4.10457721048308 1.5262086113840807 L 4.124410082398664 1.509263204208756 C 4.114623868843469 1.4924315245983664 4.100468693681131 1.4785584979749897 4.08344406787756 1.469112381927912 C 4.066419007999313 1.459666265880834 4.047156727244443 1.45499844385973 4.027696074362949 1.4556028928451197 C 4.002912363737949 1.454673104890574 3.978666905710352 1.4629823793629768 3.959663550499313 1.4789185629181716 C 3.9510419592980144 1.4861059713921976 3.9441501556778844 1.4951431890951197 3.9394999136811313 1.5053591365788859 C 3.934849671684378 1.515575084062652 3.9325605788840536 1.5267077972607042 3.9328021414408716 1.537928627617847 C 3.93268255386782 1.5461326389814833 3.934186188543144 1.5542780502639508 3.9372262305317807 1.5618982311892755 C 3.940266272520417 1.5695205824879768 3.94478281951717 1.5764636069197948 3.9505162948661963 1.5823322965301845 C 3.96321232800743 1.5952112921470678 3.9797160642006117 1.6036605557022625 3.9975867015463913 1.6064321225042106 C 3.9862172006129497 1.6119513820009637 3.9761957185837287 1.6198949485594054 3.968228494955482 1.6297072065951195 C 3.9602612713272354 1.6395172942574572 3.954541903405157 1.6509551619522624 3.9514732124879495 1.663215601156808 L 3.947315428210352 1.6762378414165482 C 3.944575548859703 1.6868336042412235 3.939552653754183 1.6967044623581065 3.932598126343469 1.705155896286678 C 3.929570238445742 1.7078276259133014 3.9260409942980146 1.709869947260704 3.922216145296391 1.7111656601665481 C 3.91839107925743 1.7124613730723923 3.9143465884700923 1.7129844330561586 3.910317941408404 1.7127022845171975 L 3.910317941408404 1.7384971720983664 L 3.96460592475256 1.738419038656808 Z M 3.990102385994443 1.7147098798905742 C 4.0047181143873 1.7083919229912234 4.016566399687624 1.6970169961243404 4.0234753492574304 1.68267082810486 L 4.027900089460352 1.6751244398743403 C 4.049113101806132 1.6376138768061586 4.072407936294768 1.6164266919035613 4.0977839418142485 1.6115628851665482 C 4.092229956343469 1.6803376767249898 4.056335887366196 1.7147207317574573 3.990102385994443 1.7147098798905742 Z" fill="#ffffff" transform="matrix(1,0,0,1,0,0)" fill-rule="nonzero"></path></g></g></g><defs><clipPath id="SvgjsClipPath1021"><path d=" M 0 0 h 2.8105650282595005 v 2.8064613531289955 h -2.8105650282595005 Z"></path></clipPath><clipPath id="SvgjsClipPath1008"><path d=" M 0 0 L 2.810565028259501 0 L 2.810565028259501 2.8064613531289955 L 0 2.8064613531289955 Z"></path></clipPath><clipPath id="SvgjsClipPath1022"><path d=" M -1.664049991070982 1.3036064363840807 h 0.6077045454545453 v 0.6077045454545453 h -0.6077045454545453 Z"></path></clipPath><clipPath id="SvgjsClipPath1023"><path d=" M 3.8669104738759366 1.3036064363840807 h 0.6077045454545453 v 0.6077045454545453 h -0.6077045454545453 Z"></path></clipPath></defs></svg>